<svg fill="none" height="127" viewBox="0 0 423 127" width="423" xmlns="http://www.w3.org/2000/svg"><path d="m225.842 90.5061c0-1.296.336-3.576 1.008-6.84l3.816-19.44h-4.248l.288-2.16c5.76-1.728 11.424-4.704 16.992-8.928h3.456l-1.728 7.848h5.616l-.648 3.24h-5.544l-3.672 19.44c-.624 2.976-.936 4.968-.936 5.976 0 2.304 1.008 3.696 3.024 4.176-.48 1.632-1.584 2.928-3.312 3.888s-3.816 1.44-6.264 1.44-4.368-.768-5.76-2.304-2.088-3.648-2.088-6.336zm47.399-13.032c1.728-3.072 2.592-6.168 2.592-9.288 0-2.064-.744-3.096-2.232-3.096-1.152 0-2.328.984-3.528 2.952-1.248 1.968-2.064 4.224-2.448 6.768l-3.744 22.896-14.904 1.44 7.344-38.16 11.88-1.44-1.296 7.272c2.352-4.848 6.168-7.272 11.448-7.272 2.784 0 4.92.72 6.408 2.16 1.536 1.44 2.304 3.648 2.304 6.624 0 2.928-.984 5.328-2.952 7.2-1.92 1.872-4.536 2.808-7.848 2.808-1.44 0-2.448-.288-3.024-.864zm30.707 21.672c-10.56 0-15.84-4.968-15.84-14.904 0-7.056 1.944-12.864 5.832-17.424 4.128-4.848 9.768-7.272 16.92-7.272 5.184 0 9.096 1.2 11.736 3.6s3.96 6.12 3.96 11.16c0 7.68-2.064 13.752-6.192 18.216-4.032 4.416-9.504 6.624-16.416 6.624zm1.872-31.32c-.576 1.296-1.104 2.928-1.584 4.896-.432 1.92-.936 4.416-1.512 7.488s-.864 6.504-.864 10.296c0 1.248.192 2.28.576 3.096.432.816 1.2 1.224 2.304 1.224s1.992-.264 2.664-.792c.72-.528 1.344-1.416 1.872-2.664.96-2.208 1.824-5.352 2.592-9.432.768-4.128 1.176-7.08 1.224-8.856.096-1.776.144-3.312.144-4.608 0-1.344-.192-2.448-.576-3.312s-1.128-1.296-2.232-1.296c-1.056 0-1.944.336-2.664 1.008s-1.368 1.656-1.944 2.952zm40.667 31.32c-10.56 0-15.84-4.968-15.84-14.904 0-7.056 1.944-12.864 5.832-17.424 4.128-4.848 9.768-7.272 16.92-7.272 5.184 0 9.096 1.2 11.736 3.6s3.96 6.12 3.96 11.16c0 7.68-2.064 13.752-6.192 18.216-4.032 4.416-9.504 6.624-16.416 6.624zm1.872-31.32c-.576 1.296-1.104 2.928-1.584 4.896-.432 1.92-.936 4.416-1.512 7.488s-.864 6.504-.864 10.296c0 1.248.192 2.28.576 3.096.432.816 1.2 1.224 2.304 1.224s1.992-.264 2.664-.792c.72-.528 1.344-1.416 1.872-2.664.96-2.208 1.824-5.352 2.592-9.432.768-4.128 1.176-7.08 1.224-8.856.096-1.776.144-3.312.144-4.608 0-1.344-.192-2.448-.576-3.312s-1.128-1.296-2.232-1.296c-1.056 0-1.944.336-2.664 1.008s-1.368 1.656-1.944 2.952zm58.523 24.984c-2.016 2.016-4.416 3.576-7.2 4.68-2.736 1.104-5.472 1.656-8.208 1.656s-4.584-.24-5.544-.72l-2.232 12.2399-14.616 1.44 9.936-51.1199 11.736-1.224-.936 4.968c2.016-3.408 5.112-5.112 9.288-5.112 4.704 0 8.304 1.512 10.8 4.536 2.208 2.736 3.312 6.192 3.312 10.368s-.552 7.752-1.656 10.728-2.664 5.496-4.68 7.56zm-20.088.864c1.008.864 2.136 1.296 3.384 1.296s2.232-.24 2.952-.72 1.344-1.2 1.872-2.16c1.44-2.592 2.736-7.824 3.888-15.696.336-2.304.504-4.584.504-6.84s-.264-3.744-.792-4.464c-.48-.72-1.2-1.08-2.16-1.08-2.928 0-4.872 2.856-5.832 8.568z" fill="#45454e"/><path clip-rule="evenodd" d="m126.338.498535c18.651 0 34.465 13.425265 39.964 32.009665 23.227 3.539 41.002 23.2165 41.002 46.9607 0 26.2491-21.723 47.5281-48.52 47.5281-.433 0-.864-.006-1.294-.017h-109.8884c-.4459.013-.8934.02-1.3424.02-25.4239 0-46.034102-21.28-46.034102-47.5295 0-24.5107 17.969702-44.688 41.048902-47.2539 7.1309-14.4378 20.9919-24.2322 36.9227-24.2322 6.9571 0 13.5194 1.86793 19.2989 5.1748 7.5274-7.84929 17.6764-12.660665 28.8424-12.660665z" fill="#2c7f65" fill-rule="evenodd"/><path d="m3.24609 83.3615c2.68079 8.5785 13.13001 12.8288 21.87281 12.8288 18.3599 0 41.6949-22.4514 54.2054-19.6713 15.737 3.4971 17.2202 20.3519 22.5497 30.84 7.944 15.635 29.9 17.312 35.348 17.312 2.921 0-5.46-1.871-15.192-9.41-12.497-9.682-8.882-42.5399-8.882-42.5399s10.578-2.3073 15.885 14.0134c2.318 7.1315-5.766 18.7085-2.203 17.1215 11.014-4.906 14.538-24.6518 24.63-30.6813 5.041-3.0116 19.2-2.0737 22.93-2.0737 1.77 0 3.109-1.9939 2.161-2.6413-3.431-2.343-26.529-26.1589-26.529-24.1788 0 1.0837-1.169 6.6729 8.16 13.6912 2.533 1.9057-4.382 5.0131-6.722 5.2714-13.964 1.5423-20.772-32.1871-49.586-30.5616-1.78.1004-15.604-2.1462-36.9784 20.8904-9.4514 10.1865-27.0996 33.1622-41.0604 35.5376-13.96077 2.3755-20.58911-5.7484-20.58911-5.7484z" fill="#fff"/></svg>