<svg fill="none" height="46" viewBox="0 0 77 46" width="77" xmlns="http://www.w3.org/2000/svg"><g clip-rule="evenodd" fill="#f6f6f6" fill-rule="evenodd"><path d="m.116211 15.9566v28.9177h1.648789v-26.6937l14.8466 13.5287.0041-.0044.004.0044 14.8238-13.5079v26.6793h1.6488v-28.9177h-1.6277l-.0057-.0063-.0069.0063h-.0085v.0077l-14.8278 13.5116-14.84328-13.5256-.00742.0081v-.0082z"/><path d="m.662109 1.32197 15.949691 14.53393.0039-.0043.0039.0043 15.9497-14.53393-1.1105-1.218699-14.8431 13.525529-14.84307-13.525529z"/><path d="m76.6353.658752v28.917648h-1.6278l-.0058.0064-.0071-.0064h-.0081v-.0074l-14.8279-13.5117-14.8431 13.5255-.0075-.0082v.0083h-1.6488v-28.917691h1.6488v26.693791l14.8467-13.5288.0039.0043.0039-.0043 14.824 13.5081v-26.679548z"/><path d="m44.2041 43.9 15.9497-14.5339.0039.0043.0039-.0043 15.9497 14.5339-1.1105 1.2187-14.8431-13.5255-14.8431 13.5255z"/></g></svg>