<svg fill="none" height="46" viewBox="0 0 78 46" width="78" xmlns="http://www.w3.org/2000/svg"><g clip-rule="evenodd" fill="#000" fill-rule="evenodd"><path d="m.916992 16.7293v28.9177h1.648788v-26.6937l14.84662 13.5287.004-.0044.0041.0044 14.8238-13.5079v26.6793h1.6488v-28.9177h-1.6277l-.0057-.0063-.0069.0063h-.0085v.0077l-14.8279 13.5116-14.8432-13.5256-.00742.0081v-.0082z"/><path d="m1.46289 2.09468 15.94971 14.53392.0039-.0043.0039.0043 15.9497-14.53392-1.1105-1.218703-14.8431 13.525523-14.84309-13.525523z"/><path d="m77.436 1.43146v28.91764h-1.6277l-.0059.0064-.007-.0064h-.0081v-.0074l-14.828-13.5117-14.8431 13.5255-.0075-.0082v.0083h-1.6487v-28.91769h1.6487v26.69379l14.8467-13.5288.0039.0043.004-.0043 14.824 13.5081v-26.67954z"/><path d="m45.0049 44.6727 15.9497-14.5339.0039.0043.0039-.0043 15.9497 14.5339-1.1105 1.2187-14.8431-13.5255-14.8431 13.5255z"/></g></svg>