<svg fill="none" height="415" viewBox="0 0 469 415" width="469" xmlns="http://www.w3.org/2000/svg" xmlns:xlink="http://www.w3.org/1999/xlink"><linearGradient id="a" gradientUnits="userSpaceOnUse" x1="325.532" x2="325.532" y1="412.654" y2="180.178"><stop offset="0" stop-color="#808080" stop-opacity=".25"/><stop offset=".54" stop-color="#808080" stop-opacity=".12"/><stop offset="1" stop-color="#808080" stop-opacity=".1"/></linearGradient><clipPath id="b"><path d="m.516602 0h468v415h-468z"/></clipPath><g clip-path="url(#b)"><path d="m333.131 414.995c26.405 0 47.811-2.245 47.811-5.014s-21.406-5.014-47.811-5.014-47.811 2.245-47.811 5.014 21.406 5.014 47.811 5.014z" fill="#2c7f65" opacity=".1"/><path d="m205.413 6.07042c21.057-8.32698 46.692-1.16548 68.584 9.27918 68.755 32.812 118.846 95.0984 158.643 158.5544 14.409 22.978 28.096 46.967 33.513 72.617 11.03 52.209-17.738 106.257-66.663 125.198-16.637 6.447-34.916 9.09-53.223 10.563-32.552 2.624-66.257 1.582-98.548-8.133-23.029-6.944-44.814-18.112-65.708-30.452-58.35-34.478-111.6385-79.252-150.0092-133.945-16.8288-23.989-31.065734-51.034-31.475966-78.712-.410232-27.679 16.544466-55.4921 44.440266-60.1987 11.5331-1.9441 23.7328.0794 35.6342 2.1624 17.5234 3.0699 35.2847 6.2985 52.6077 4.9595 17.896-1.3937 41.172-8.8329 44.435-27.0094 3.455-19.5156 6.741-36.5663 27.77-44.88338z" fill="#2c7f65" opacity=".1"/><path d="m114.272 381.29s22.498-1.443 19.845 15.33c0 0 .527 2.976-2 4.31 0 0-.037-1.245-2.307-.823-.807.147-1.627.19-2.443.129-1.104-.082-2.153-.543-2.988-1.315 0 0-6.326-2.777-8.783-13.777 0 0-1.823-2.396-1.748-3.015l3.795 1.725s-1.296 2.917-.275 5.337c0 0 .121-5.227.853-5.108.144.024 1.972.991 1.972.991s-2.233 5.074-.551 8.764c0 0-.638-6.254 1.245-8.397l2.676 1.662s-2.611 5.242-.839 9.517c0 0-.466-6.561 1.398-9.115l2.424 1.983s-2.452 5.168-.955 8.719c0 0 .191-7.642 1.478-8.218 0 0 2.121 1.984 2.442 2.807 0 0-1.678 3.75-.638 5.729 0 0 .638-5.089 1.165-5.114 0 0 2.107 3.373 2.331 5.684 0 0-.093-3.437-1.823-6.006 0 0 2.042.372 3.235 1.78 0 0-.331-2.385-3.752-2.593 0 0-1.744-2.554-2.215-2.713 0 0 3.408-.303 5.473.674 0 0-1.818-2.251-6.097-1.23l-2.392-2.073s4.49-.654 6.387.07c0 0-2.186-1.984-7.03-.541l-2.601-1.656s3.822-.878 6.102-.561c0 0-2.405-1.378-6.867.114l-1.864-.887s2.797-.586 3.622-.68.862-.332.862-.332c-1.774-.316-3.597-.102-5.263.62 0 0-3.944-1.503-3.874-1.791z" fill="#2c7f65"/><path d="m129.767 405.255c8.795 0 15.925-1.282 15.925-2.862s-7.13-2.862-15.925-2.862-15.924 1.282-15.924 2.862 7.129 2.862 15.924 2.862z" fill="#2c7f65" opacity=".1"/><path d="m84.1338 370.008s12.6846-.814 11.1882 8.644c.079.479.0127.973-.1892 1.41s-.5291.794-.9343 1.02c0 0-.0233-.699-1.3007-.461-.454.082-.9158.106-1.3752.069-.6238-.041-1.2173-.301-1.6875-.739 0 0-3.5616-1.572-4.9601-7.771 0 0-1.0256-1.354-.9883-1.701l2.1444.992s-.7319 1.646-.1585 3.01c0 0 .07-2.951.4662-2.882.0839 0 1.1142.571 1.1142.571s-1.2587 2.861-.3077 4.959c0 0-.3636-3.526.6992-4.736l1.5058.937s-1.4685 2.976-.4662 5.366c0 0-.2564-3.699.7878-5.138l1.3659 1.131s-1.3985 2.911-.5361 4.915c0 0 .1072-4.31.8345-4.632 0 0 1.1934 1.121 1.3752 1.582 0 0-.9324 2.113-.359 3.229 0 0 .359-2.867.6573-2.882 0 0 1.1888 1.9 1.31 3.204-.0595-1.205-.4129-2.372-1.0256-3.387.6858.133 1.3197.478 1.8227.992 0 0-.1818-1.344-2.1164-1.464 0 0-.9836-1.443-1.2447-1.527 0 0 1.9207-.174 3.0861.377 0 0-1.0256-1.27-3.4404-.694l-1.3472-1.171s2.5313-.367 3.6035.04c0 0-1.2354-1.121-3.9671-.303l-1.4638-.937c1.1277-.262 2.2826-.367 3.4357-.312 0 0-1.3519-.779-3.8692.064l-1.0489-.496s1.5803-.332 2.0418-.382c.4615-.049.4895-.188.4895-.188-1.0014-.177-2.0292-.055-2.9695.352 0 0-2.2097-.898-2.1724-1.061z" fill="#2c7f65"/><path d="m92.8701 383.517c4.9587 0 8.9789-.724 8.9789-1.617s-4.0202-1.616-8.9789-1.616-8.9785.723-8.9785 1.616 4.0198 1.617 8.9785 1.617z" fill="#2c7f65" opacity=".1"/><path d="m396.194 379.098s15.314-.992 13.519 10.415c.092.58.01 1.175-.234 1.702-.245.527-.639.959-1.127 1.234 0 0-.028-.848-1.571-.56-.549.099-1.108.128-1.664.084-.751-.052-1.466-.366-2.033-.893 0 0-4.307-1.889-5.981-9.378 0 0-1.24-1.632-1.188-2.048l2.582 1.17s-.881 1.984-.186 3.636c0 0 .084-3.561.578-3.472.102 0 1.342.684 1.342.684s-1.519 3.472-.373 5.952c0 0-.433-4.256.849-5.714l1.818 1.126s-1.776 3.571-.569 6.482c0 0-.312-4.463.933-6.204l1.65 1.369s-1.669 3.516-.653 5.951c0 0 .135-5.197 1.012-5.594 0 0 1.44 1.354 1.659 1.909 0 0-1.142 2.554-.433 3.903 0 0 .433-3.471.792-3.471 0 0 1.436 2.296 1.585 3.868-.069-1.454-.495-2.862-1.235-4.087.829.167 1.593.588 2.2 1.211 0 0-.223-1.622-2.559-1.766 0 0-1.184-1.741-1.501-1.845 0 0 2.331-.208 3.729.456 0 0-1.24-1.527-4.153-.833l-1.627-1.413s3.053-.447 4.349.044c0 0-1.492-1.354-4.787-.367l-1.772-1.125s2.601-.596 4.154-.382c0 0-1.637-.938-4.662.079l-1.268-.605s1.907-.402 2.466-.461c.559-.06.587-.228.587-.228-1.207-.215-2.446-.069-3.58.421 0 0-2.694-1.061-2.648-1.25z" fill="#2c7f65"/><path d="m406.74 395.415c5.986 0 10.838-.873 10.838-1.949 0-1.077-4.852-1.949-10.838-1.949s-10.839.872-10.839 1.949c0 1.076 4.853 1.949 10.839 1.949z" fill="#2c7f65" opacity=".1"/><path d="m380.936 258.697c-.293-1.746-.463-3.514-.508-5.287 0-2.128-2.718-4.012-2.718-4.012s-1.678-4.131-2.797-4.742c-1.118-.61-4.573-6.015-4.573-6.015-.04-1.067-.404-2.09-1.039-2.917-1.035-1.447-1.98-2.964-2.83-4.542-.466-.605-.233-1.032-.932-4.558-.038-.184-.08-.362-.131-.531 0-.079-.047-.149-.074-.228.742-.792 1.259-1.79 1.492-2.881.234-1.09.173-2.228-.173-3.284-.126-.419-.354-.796-.662-1.091-.788-.684-2.047-.401-2.858-1.051l.863-4.057c.205-.992.312-2.247-.504-2.782-.306-.155-.628-.27-.96-.342-1.399-.496-2.21-2.069-2.573-3.581-.35-1.457-.445-2.97-.28-4.464.158-1.438.555-2.837.699-4.28.263-2.669-.341-5.354-1.711-7.608-.533-.972-1.318-1.761-2.261-2.271-.862-.412-1.864-.496-2.671-.992-1.734-1.175-1.645-3.968-3.03-5.569-1.385-1.602-3.837-1.597-5.855-1.047-2.019.551-4.028 1.488-6.098 1.255-1.333-.159-2.582-.804-3.92-.952-.383-.039-.769-.021-1.147.054v-.044c-.988.188-1.897.773-2.13 1.77-.053.237-.075.481-.066.724 0 .58.131 1.185.14 1.741.017.221-.007.443-.072.653s-.169.405-.305.572c-.266.302-.658.461-.933.774-.112.119-.2.262-.258.418-.059.157-.087.325-.082.494 0 .883 1.035 1.662 1.729 2.019h.028c-.186.198-.373.406-.545.62-1.991 2.392-3.089 5.478-3.086 8.674.017 2.581.742 5.1 2.087 7.249 1.345 2.148 3.251 3.831 5.484 4.842l-.098.322c-.197.638-.425 1.264-.686 1.875-.482-.173-.994-.231-1.499-.171-.506.06-.993.237-1.428.518-1.333.992-3.939.913-4.634.729-.695-.183-7.925-1.155-8.508-.912-.582.243-1.734-.848-2.484.61-.751 1.458-1.1 2.246-1.865 2.613-.764.367-2.084 1.518-1.907 1.761.178.243-1.911 1.701-1.911 1.701s-1.795 1.984-2.834 2.247c-1.04.263-3.24 1.765-3.24 1.765l-2.55 2.123s-1.907.307-1.329-1.091c.578-1.399-1.044-3.159-1.044-3.159s-3.24-6.988-3.24-8.431c0-1.444-2.662-7.598-2.662-7.598l-.326-.035-.149-.451c-.49-1.463-1.124-3.259-1.608-4.31-.933-2.009-1.506-2.217-1.506-2.217s-11.226-8.967-18.517-6.234c-7.291 2.732 13.31 10.876 15.16 11.729.648.298 1.115 1.26 1.441 2.386-1.642.842-3.025 2.165-3.986 3.813 0 0 4.457 10.51 4.573 13.123.117 2.614 3.068 9.919 3.068 9.919s1.1 5.411 7.057 5.103c0 0 8.219 1.607 10.014 0 1.795-1.606 3.412-2.866 4.284-3.05.641-.224 1.205-.647 1.618-1.215 0 0-2.718 18.226-4.051 19.808-1.334 1.583-13.114 22.045-8.886 25.705 3.349 2.759 6.888 5.246 10.587 7.44.359.188 1.436-1.721 2.974-3.075v1.056c.028 7.281.933 18.35 2.182 20.83 1.865 3.645 1.1 10.693 1.1 10.693.981.491 2.045.762 3.128.798.056.238.121.496.182.744 1.021 4.102 2.676 10.445 3.52 12.131 1.272 2.554 2.195 10.638 2.195 10.638s.755 7.935.466 9.051c-.111.422.378 3.725 1.147 7.935-.466 5.699-1.352 16.684-1.501 20.657v.218.069c.002.045.002.09 0 .134v.243c-.014.25-.005.501.028.749.058.378.031.766-.079 1.131-.33 1.098-.75 2.163-1.254 3.184-.213.501-.399 1.014-.56 1.537-.466.218-1.034.749-1.351 2.044-.579 2.37-1.446 8.927-1.446 8.927s-.349 4.012-1.039 4.924c-.69.913-1.399 6.621 3.529 7.35 4.927.729 7.058-2.777 7.058-2.777l-.173-15.91v-.03c.1-.133.186-.278.257-.431v-.04c.032-.074.069-.154.102-.243l.042-.119.075-.193c-.003-.023-.003-.047 0-.07.478-1.524.621-3.144.419-4.736v-.079-.124c0-.04 0-.085 0-.124v-.248c0-.03 0-.065 0-.095 0-.105.01-.215.028-.327 0 0 0-.04 0-.059l.028-.194v-.084c0-.065 0-.129.037-.199-.001-.016-.001-.033 0-.049.047-.228.103-.496.164-.714v-.055l.07-.238c.069-.253.149-.496.233-.764v-.049c0-.08.051-.159.079-.233v-.03c.084-.243.172-.496.256-.704l.024-.065.074-.198.023-.06.178-.441 1.365 4.488s.756 3.343.35 4.131c-.405.789.466 4.072 1.04 4.132l-.536 4.131c-.29 2.278-.463 4.571-.518 6.869-.037.263-.074.496-.102.654-.373 2.118.522 5.401.522 5.401 4.568 5.748 10.013.447 10.013.447s.634-3.04 0-3.646c-.634-.605-.35-2.797-.35-2.797s.289-5.41.345-9.358-3.034-7.439-3.034-7.439l-.173.163c-.564-1.547-1.207-3.352-1.072-4.161.233-1.398-.639-16.163-.639-16.163.322-3.958.391-7.935.205-11.903.075-.669.145-1.329.215-1.983.349-3.174.634-5.887.746-7.311v-.168c.028-.382.042-.655.037-.784 0-.496 0-1.061.047-1.681.107-1.706.359-3.606.359-3.606l1.212-7.841s.932-3.828 2.261-5.951l.158-.268c.051-.094.103-.198.159-.307l.023-.045c.051-.104.107-.213.158-.327l.024-.045c.186-.392.387-.843.596-1.339 0-.04.033-.074.047-.114l.158-.377c0-.05.038-.099.061-.149.023-.049.098-.253.149-.377.023-.05.044-.101.061-.153.06-.149.126-.303.186-.462l.089-.228c.042-.114.089-.228.135-.342l.112-.302c.033-.075.061-.149.089-.224l.125-.342c0-.049.042-.104.061-.154.331-.877.648-1.745.932-2.534.089-.248.178-.496.257-.714 2.965.193 4.979.367 4.979.367s.932-7.107.634-11.784c-.196-3.194.363-7.211.731-9.423.042-.243.08-.461.117-.659l.079.069c1.45 1.215 2.49-2.797 2.49-2.797s-.392-3.745-.933-8.282l-.056-.452c.836.19 1.681.327 2.532.412 0 0 .466-.045 1.104-.129 1.767 1.088 3.632 1.985 5.567 2.678l3.081-6.051c.579-1.254 1.257-2.453 2.028-3.585.932-1.215 4.223-5.104 4.167-5.833s1.101-4.924 2.257-6.809 1.617-5.674 1.561-5.976zm-12.847 4.617c-1.217.546-2.373 3.586-2.429 4.498-.056.913-1.333 4.92-2.662 5.406-1.226.447-3.566 2.738-3.939 3.105-.382.035-.816.089-1.268.168-.508-3.833-1.012-7.007-1.333-7.647-.933-1.825 1.021-7.658 1.021-7.658s.191-5.891 1.398-7.29.932-4.925.932-4.925.289-1.458.406-2.122c.116-.665 1.72 0 1.734 0 0 0 3.123 1.82 3.59 4.552.466 2.733 3.878 7.474 3.878 7.474s-.522 1.642 0 2.48-.112 1.414-1.328 1.959z" fill="url(#a)"/><path d="m284.397 211.383c.951-1.667 2.342-3 4-3.831 1.659-.831 3.51-1.123 5.324-.841v7.097h-4.051l-3.17-.853z" fill="#4c4981"/><path d="m284.397 211.383c.951-1.667 2.342-3 4-3.831 1.659-.831 3.51-1.123 5.324-.841v7.097h-4.051l-3.17-.853z" fill="#000" opacity=".1"/><path d="m294.023 208.591-4.965 3.7s-.042-.739-.167-1.751c-.248-1.914-.802-4.786-2-5.341-1.823-.853-22.116-8.977-14.918-11.71 7.198-2.732 18.241 6.225 18.241 6.225s.569.208 1.478 2.207c.466 1.051 1.105 2.841 1.585 4.304.443 1.32.746 2.366.746 2.366z" fill="#ae6e79"/><path d="m333.686 214.29.564-.283 1.585 1.924-1.296 2.941-2.21-.942.513-2.351z" fill="#4c4981"/><path d="m326.176 386.537s-1.427-.178-1.996 2.188c-.568 2.365-1.426 8.927-1.426 8.927s-.34 4.002-1.026 4.915c-.685.912-1.366 6.611 3.478 7.335 4.843.724 6.955-2.773 6.955-2.773l-.172-15.905z" fill="#444053"/><path d="m343.079 387.252s3.049 3.471 2.993 7.409-.345 9.339-.345 9.339-.28 2.187.345 2.792c.624.605 0 3.64 0 3.64s-5.361 5.292-9.864-.446c0 0-.877-3.278-.513-5.391.363-2.113 1.38-11.61 1.38-11.61z" fill="#444053"/><path d="m350.631 314.729s-3.077 9.155-4.392 11.278c-1.314 2.123-2.218 5.951-2.218 5.951l-1.199 7.821c-.233 1.749-.367 3.511-.4 5.277.055 1.761-2.965 27.411-2.965 27.411l-4.788 6.492s-2.107 4.548-1.767 6.448c.341 1.899-.228 4.915-.932 5.822 0 0-.112 5.952-.284 7.276-.173 1.324.629 5.098 0 5.763-.63.664-9.007.367-9.235-.729-.229-1.096 1.025-6.368 1.025-6.368l.741-5.094s1.483-2.787 1.143-3.7c-.341-.912.624-3.03.68-3.213.056-.184 1.599-3.155 1.315-4.305-.285-1.151 1.795-25.621 1.795-25.621l5.869-43.847z" fill="#ae6e79"/><path d="m350.631 314.729s-.466 1.379-1.105 3.189c-1.016 2.857-2.48 6.79-3.287 8.089-1.309 2.123-2.223 5.951-2.223 5.951l-1.198 7.826c-.232 1.749-.364 3.511-.396 5.277 0 .695-.439 5.123-.998 10.227-.862 7.801-1.967 17.184-1.967 17.184l-4.788 6.492s-.242.496-.545 1.28c-.602 1.488-1.45 3.903-1.222 5.148.341 1.879-.228 4.91-.932 5.822 0 0-.117 5.952-.284 7.276-.168 1.324.629 5.093 0 5.763-.63.669-9.007.367-9.235-.724-.229-1.091 1.025-6.368 1.025-6.368l.741-5.099s1.483-2.787 1.138-3.699c-.345-.913.629-3.031.685-3.214.056-.184 1.599-3.154 1.315-4.305-.219-.878.932-15.246 1.468-22.06.182-2.142.299-3.536.299-3.536l5.048-37.722.411-3.04.41-3.085z" fill="#000" opacity=".1"/><path d="m345.503 405.939c.051.669-8.042 1.641-9.198.912s0-9.765 0-9.765l.527-4.121c-.564-.065-1.422-3.338-1.026-4.126.397-.789-.34-4.122-.34-4.122l-1.342-4.463-.821-2.733c-1.333-3.129-3.263-12.056-4.461-18.722-.755-4.186-1.236-7.484-1.128-7.905.284-1.091-.467-9.037-.467-9.037s-.932-8.069-2.163-10.613c-.834-1.686-2.461-8.019-3.468-12.106-.513-2.098-.867-3.605-.867-3.605s8.615-.769 13.841-1.037c2.4-.124 4.088-.139 3.892.069-.196.209-.247 1.32-.238 2.927.024 4.161.569 11.481 1.147 13.45.797 2.727 1.595 10.91 1.254 11.704-.34.794-.228 6.065-.228 6.065.587 2.142.925 4.352 1.007 6.582.182 3.949.117 7.907-.196 11.848 0 0 .853 14.739.625 16.133-.229 1.394 1.822 5.763 1.822 6.611s.569 6.611.569 6.611 1.221 8.778 1.259 9.443z" fill="#ae6e79"/><path d="m350.002 228.786-.979 1.126-.639.734-3.729 4.265-9.636 1.156-5.128-1.458-1.268-.363s0-2.737.228-6.02c.327-4.211 1.105-9.324 2.965-10.718.932-.775 1.675-1.777 2.168-2.921.372-.789.684-1.608.932-2.45.038-.109.066-.213.098-.322.42-1.47.722-2.975.905-4.499 0 0 1.23-.724 2.941-1.567 4.461-2.217 12.167-5.277 9.487 1.567-.394 1.003-.73 2.03-1.007 3.075-.042.154-.079.308-.112.457-.895 3.809-.303 6.12.364 7.394.112.221.242.432.387.63.182.266.4.502.648.699l1.109 7.494.093.62z" fill="#ae6e79"/><path d="m348.351 207.683c-.508 1.3.247-1.061 0 0-2.032 1.538-6.82 5.917-9.51 5.917-1.818 0-2.363-.352-3.92-1.101.471-1.569.807-3.181 1.002-4.816 0 0 16.134-9.462 12.428 0z" fill="#000" opacity=".1"/><path d="m352.458 199.714c-.003 3.266-1.141 6.416-3.195 8.843s-4.88 3.96-7.933 4.304c-.429.045-.862.075-1.3.075-2.458 0-4.861-.776-6.905-2.229s-3.637-3.518-4.577-5.934c-.941-2.416-1.187-5.074-.708-7.639.48-2.565 1.664-4.921 3.402-6.77s3.952-3.108 6.363-3.618c2.411-.511 4.91-.249 7.181.752s4.212 2.695 5.577 4.87c1.366 2.174 2.095 4.73 2.095 7.346z" fill="#ae6e79"/><path d="m354.225 258.325-1.772 4.915s-1.44.064-3.687.139c-7.585.257-24.297.585-25.043-1.488-.167-.526-.255-1.077-.261-1.632-.098-3.159 1.287-8.01 1.287-8.01s.797-9.705.797-10.127c0-.421-.685-7.221-.685-7.221l1.37-5.455 3.818-2.852s1.711 2.792 2.736 3.03c1.026.238 2.397 1.582 2.397 1.582s3.361 2.183 4.447.967c1.086-1.215 9.519-6.551 9.519-6.551l4.447 5.217z" fill="#000" opacity=".1"/><path d="m354.225 259.079-1.771 4.91s-1.441.069-3.687.143h-.22c-.969.035-2.079.07-3.263.095-6.027.148-14.33.188-18.67-.496-1.632-.248-2.699-.605-2.876-1.091-.099-.293-.167-.595-.205-.903-.028-.228-.047-.496-.056-.729-.098-3.159 1.286-8.01 1.286-8.01s.797-9.705.797-10.127c0-.421-.685-7.221-.685-7.221l1.371-5.455 2.624-1.954 1.194-.893c.401.639.839 1.252 1.31 1.835.368.525.86.938 1.426 1.195 1.03.243 2.396 1.582 2.396 1.582s3.361 2.182 4.448.967c.825-.927 5.953-4.265 8.321-5.787.727-.472 1.198-.764 1.198-.764l.596.704 3.851 4.513z" fill="#fff"/><path d="m294.023 208.591-4.965 3.7s-.042-.739-.167-1.751c2.452-1.101 3.943-3.536 4.372-4.315.457 1.32.76 2.366.76 2.366z" fill="#000" opacity=".1"/><path d="m311.468 221.148-1.082-.307s-1.771 1.984-2.797 2.247c-1.025.262-3.188 1.755-3.188 1.755l-2.513 2.123s-1.865.307-1.31-1.091c.555-1.399-1.026-3.154-1.026-3.154s-3.193-6.973-3.193-8.431c0-1.459-2.638-7.579-2.638-7.579s-3.31 6.854-9.352 4.672c0 0 4.391 10.49 4.503 13.098.112 2.609 3.021 9.885 3.021 9.885s1.086 5.4 6.955 5.098c0 0 8.098 1.602 9.865 0 1.766-1.602 3.361-2.862 4.195-3.045.835-.184 1.595-1.21 1.595-1.21v-7.211z" fill="#4c4981"/><path d="m301.319 227.997s1.427 5.644.513 6.25z" fill="#000" opacity=".1"/><path d="m348.766 264.108c-7.585.257-24.297.58-25.043-1.488-.167-.526-.255-1.077-.261-1.632l24.777 1.389z" fill="#000" opacity=".1"/><path d="m350.631 314.729s-.466 1.379-1.105 3.189c-3.146-.203-7.314-.417-11.272-.446-1.398 0-2.769 0-4.065.049-2.75.09-5.128.328-6.643.784-1.915.627-3.918.902-5.92.813-.513-2.098-.867-3.605-.867-3.605s8.615-.769 13.84-1.037l.411-3.085z" fill="#000" opacity=".1"/><path d="m357.302 292.53-.97 2.183s-.135.649-.307 1.681c-.364 2.222-.933 6.229-.718 9.423.284 4.672-.63 11.764-.63 11.764s-20.977-1.88-27.131 0c-6.153 1.879-9.184 0-9.184 0s.746-7.033-1.081-10.673c-1.245-2.48-2.121-13.549-2.149-20.83 0-3.357.158-5.902.555-6.417 1.254-1.637 6.61-18.013 6.61-18.013l1.221.069 3.263.184 18.554 1.041 2.914.164.307.992z" fill="#444053"/><path d="m366.536 285.25.173 1.944s-9.188-3.184-8.722-7.097 0-3.472 0-3.472l7.384.665z" fill="#4c4981"/><g fill="#000"><path d="m366.536 285.25.173 1.944s-9.188-3.184-8.722-7.097 0-3.472 0-3.472l7.384.665z" opacity=".1"/><path d="m307.45 229.565c.938.848 2.044 1.46 3.235 1.79-.345-.079-.666-.25-.933-.496-.657-.496-1.282-1.036-1.916-1.562-.512-.427-1.151-1.136-1.78-1.309.412.575.879 1.104 1.394 1.577z" opacity=".1"/><path d="m307.589 232.119c.296.355.535.759.709 1.195.294 1.235.276 2.53-.051 3.754l-1.473-3.779c-.257-.644-.513-1.289-.821-1.904-.135-.263-.983-1.359-.886-1.587.261-.645 2.247 1.959 2.522 2.321z" opacity=".1"/><path d="m348.692 253.048c1.004-.129 1.943-.597 2.68-1.334-1.515.203-2.951.838-4.442 1.17-1.385.343-2.837.2-4.14-.406 1.716.892 4.074.922 5.902.57z" opacity=".1"/><path d="m344.407 241.944c-.271.043-.548-.031-.769-.204-1.137-.694-2.259-1.418-3.366-2.172-1.076-.739-2.377-1.488-3.295-2.42 2.26 2.172 4.368 4.007 7.43 4.796z" opacity=".1"/><path d="m347.568 254.809c.597.028 1.195-.023 1.781-.154.592-.131 1.115-.496 1.463-1.022-.211-.052-.433-.014-.62.104-1.806.809-3.79 1.062-5.724.729.927.422 2.116.338 3.1.343z" opacity=".1"/><path d="m336.772 282.968c-1.187.381-2.407.635-3.641.759-.961.047-1.923.028-2.881-.059l-4.662-.313-2.331-.158c-.275 0-1.398 0-.843-.591.279-.287 1.836-.104 2.237-.119.774-.026 1.551-.041 2.331-.044 1.543 0 3.091 0 4.634.099 1.729.089 3.431.228 5.156.426z" opacity=".1"/><path d="m331.369 285.424c-.793-.035-1.814.466-2.63.575-.912.115-1.832.153-2.75.114-1.817-.046-3.612-.436-5.301-1.151 3.557.194 7.124.308 10.681.462z" opacity=".1"/><path d="m321.383 288.022c.345.074.684.174 1.016.298 1.968.595 4.061.069 6.061-.457-.499.799-1.399 1.141-2.299 1.359-1.463.395-2.989.454-4.475.174-.466-.099-1.636-.278-1.865-.794-.382-.758 1.124-.654 1.562-.58z" opacity=".1"/><path d="m332.413 291.935c.59.129 1.172.294 1.743.496 2.214.585 4.513-.218 6.736-.759 2.673-.645 5.415-.916 8.154-.803-.49 0-1.268.456-1.748.61-.63.203-1.268.392-1.907.56-1.254.328-2.527.596-3.809.789-2.588.398-5.207.519-7.817.362-1.194-.069-3.264.059-4.285-.58.883-.558 1.912-.795 2.933-.675z" opacity=".1"/><path d="m333.247 217.136s.112 5.585-.741 8.134c-.27.793-.69 2.256-1.147 3.898-.498 1.82-1.044 3.858-1.463 5.455-.42 1.597-.7 2.669-.7 2.669s-1.925 16.683-2.424 24.633c0 .139 0 .283-.028.417-.028.446-.074.913-.144 1.394-1.11 7.895-7.51 20.071-9.659 21.043-.671.327-1.283.775-1.809 1.324 0-3.358.158-5.902.555-6.418 1.254-1.636 6.61-18.012 6.61-18.012l1.221.069c-.028-.228-.046-.496-.056-.729-.098-3.159 1.287-8.01 1.287-8.01s.797-9.705.797-10.127-.685-7.221-.685-7.221l1.37-5.455 2.625-1.954c.326-4.211 1.105-9.324 2.965-10.718.931-.776 1.675-1.777 2.168-2.921.368.054-.303-.293-.303-.293z" opacity=".1"/></g><path d="m334.25 214.007c-.475-.173-.981-.232-1.48-.172-.499.061-.979.238-1.406.519-1.314.992-3.878.908-4.564.729-.685-.178-7.808-1.155-8.391-.912s-1.711-.849-2.452.61c-.741 1.458-1.081 2.241-1.823 2.603-.741.362-2.055 1.518-1.864 1.761s-1.865 1.696-1.865 1.696l4.158 14.383s-2.68 18.191-3.99 19.768-12.941 22.015-8.778 25.655c3.295 2.757 6.783 5.244 10.433 7.44.466.243 2.107-3.031 4.386-4.062 2.28-1.032 9.352-14.68 9.79-22.442.438-7.761 2.452-25.045 2.452-25.045s2.452-9.463 3.305-12.012.741-8.134.741-8.134z" fill="#4c4981"/><path d="m357.302 292.53-.97 2.183s-.135.649-.308 1.681c-.173-.023-.335-.101-.466-.223-1.426-1.215-9.789-10.371-10.204-18.499-.294-5.996-.154-11.164-.061-13.465.028-.724.056-1.161.056-1.255 0 0 6.498-8.372 5.757-11.337-.741-2.966-2.452-18.846-2.452-18.846l-.252-2.083-.433-3.522-1.035-8.52 1.072.268c.182.266.401.502.648.699l1.11 7.494 3.85 4.513.63 27.476-1.772 4.909s-1.44.07-3.687.144h-.219z" fill="#000" opacity=".1"/><path d="m360.891 247.176s-1.594-.67-1.706 0c-.112.669-.401 2.118-.401 2.118s.284 3.521-.932 4.914c-1.217 1.394-1.399 7.276-1.399 7.276s-1.92 5.822-1.011 7.643c.331.659.843 3.967 1.356 7.935.326 2.48.648 5.202.932 7.692.518 4.523.905 8.267.905 8.267s-1.03 4.003-2.457 2.788c-1.426-1.215-9.79-10.371-10.2-18.499-.279-5.709-.168-10.668-.074-13.113.037-1.037.074-1.622.074-1.622s6.499-8.371 5.758-11.342c-.742-2.971-2.453-18.846-2.453-18.846l-.298-2.455-.322-2.639-.074-.58-1.03-8.431c.181.045 6.577 1.582 7.421 2.48.844.897 6.06 2.182 6.06 2.182.787.227 1.502.674 2.071 1.295s.971 1.393 1.165 2.236c.051.169.088.347.125.531.686 3.521.467 3.942.933 4.552.466.611-4.443 15.618-4.443 15.618z" fill="#4c4981"/><path d="m357.768 284.749c-2.331-.496-5.79-1.642-5.711-4.171.07-2.366 2.746-3.219 4.774-3.521.326 2.47.648 5.202.937 7.692z" fill="#000" opacity=".1"/><path d="m364.998 283.489c-.093.214-.466.397-.997.561-1.247.315-2.514.536-3.79.659 0 0-7.925-.669-7.813-4.493.084-2.743 3.664-3.472 5.673-3.635.445-.045.891-.064 1.338-.06 0 0 5.93 6.185 5.589 6.968z" fill="#ae6e79"/><path d="m364.999 283.489c-.093.214-.466.397-.998.561-2.065-2.941-4.946-6.715-6.358-7.048l.428-.421c.445-.045.892-.064 1.338-.06 0 0 5.93 6.185 5.59 6.968z" fill="#000" opacity=".1"/><path d="m363.003 231.152 2.331.367c.842 1.577 1.776 3.096 2.797 4.548.627.828.986 1.849 1.026 2.911 0 0 3.421 5.396 4.503 6.001s2.736 4.731 2.736 4.731 2.681 1.88 2.681 4.003c.047 1.77.219 3.533.513 5.276.06.303-.396 4.067-1.539 5.952-1.142 1.884-2.284 6.04-2.223 6.784.06.744-3.194 4.613-4.103 5.823-.758 1.131-1.426 2.329-1.995 3.581l-3.021 6.065s-6.386-10.008-8.722-10.554c0 0 2.62-2.668 3.93-3.154s2.569-4.464 2.625-5.396 1.198-3.943 2.391-4.463c1.194-.521 1.828-1.092 1.315-1.945s0-2.479 0-2.479-3.366-4.732-3.823-7.44c-.457-2.707-3.533-4.547-3.533-4.547l-1.767-4.613z" fill="#4c4981"/><path d="m371.483 253.792c1.289-1.159 2.913-1.813 4.601-1.855-1.082.198-2.219.451-3.012 1.255-.311.348-.59.726-.834 1.131-.271.411-2.471 3.387-2.797 2.916-.546-.69 1.599-3.045 2.042-3.447z" fill="#000" opacity=".1"/><path d="m366.317 250.92c.349-.032.684-.162.97-.377.286-.216.513-.508.657-.848.278-.683.45-1.41.508-2.152.167-1.242.402-2.472.704-3.685.091-.24.129-.498.112-.756s-.088-.508-.21-.732c-.125-.387-.294-.757-.503-1.101-.42.496-.541 1.652-.713 2.316-.215.824-.41 1.652-.597 2.48-.098.397-.872 4.855-.928 4.855z" fill="#000" opacity=".1"/><path d="m364.299 226.435c-.23.32-.494.61-.788.863-.932.789-2.168 1.453-2.284 2.698.032.405-.015.812-.14 1.195-.298.546-1.03.496-1.613.392-.492-.047-.963-.232-1.366-.535-.61-.556-.666-1.548-1.133-2.247-.283-.361-.64-.648-1.045-.838-.404-.19-.844-.278-1.285-.258-.872-.03-1.739.178-2.611.218-.56.03-1.122-.01-1.674-.119-.182-.03-.362-.069-.54-.119-.39-.102-.77-.24-1.138-.412-.19-.08-.375-.173-.554-.277-.584-.319-1.125-.719-1.609-1.191-.853-.833-1.561-1.983-1.492-3.218.042-.759.364-1.458.467-2.207.349-2.143-.989-4.166-2.438-5.699-.579-.61-1.194-1.2-1.772-1.82-.9-.883-1.611-1.962-2.084-3.164-.389-1.279-.516-2.632-.373-3.968.131-1.354.167-2.716.108-4.076-.429-4.821-4.299-8.516-8.168-10.524l-.172-.095c1.148-1.401 2.56-2.529 4.146-3.31s3.308-1.198 5.055-1.222c1.747-.025 3.48.342 5.084 1.078 1.605.736 3.045 1.824 4.228 3.193 1.182 1.368 2.08 2.987 2.634 4.75.555 1.762.754 3.63.584 5.48s-.705 3.641-1.57 5.256-2.04 3.018-3.449 4.117c-.042.154-.079.308-.112.457-.895 3.809-.303 6.12.364 7.394.182.045 6.577 1.582 7.421 2.48s6.06 2.182 6.06 2.182c.793.225 1.514.673 2.088 1.297.573.624.978 1.401 1.171 2.249z" fill="#000" opacity=".1"/><path d="m329.775 187.538c.256-.312.643-.471.904-.774.807-.932 0-2.455.294-3.685.317-1.363 1.892-1.959 3.207-1.815s2.545.789 3.86.948c2.042.243 4.018-.7 6.009-1.25 1.991-.551 4.396-.58 5.767 1.041 1.37 1.622 1.277 4.384 2.983 5.56.788.54 1.781.6 2.634.992.933.509 1.708 1.297 2.228 2.266 1.351 2.257 1.945 4.932 1.688 7.593-.145 1.438-.536 2.837-.695 4.275-.161 1.494-.066 3.006.28 4.464.359 1.488 1.137 3.095 2.531 3.571.322.075.635.19.932.342.807.535.7 1.795.495 2.777l-.83 4.072c.797.645 2.037.367 2.797 1.046.304.296.53.673.653 1.091.374 1.139.415 2.372.116 3.536s-.923 2.203-1.79 2.981c-.932.789-2.168 1.453-2.284 2.693.035.405-.012.813-.14 1.195-.294.546-1.03.496-1.613.392-.49-.048-.96-.233-1.361-.535-.616-.556-.667-1.548-1.133-2.247-.284-.36-.642-.647-1.046-.837s-.844-.278-1.285-.259c-.876-.03-1.739.178-2.615.223-2.022.088-3.995-.67-5.496-2.113-.858-.838-1.562-1.983-1.497-3.223.042-.754.364-1.458.466-2.207.345-2.138-.988-4.166-2.438-5.699-1.45-1.532-3.151-2.946-3.86-4.984-.885-2.524-.028-5.341-.265-8.02-.429-4.825-4.294-8.515-8.168-10.528-.862-.472-2.331-1.667-1.328-2.882z" fill="#444053"/><path d="m360.262 229.188c-.615-.561-.667-1.547-1.133-2.247-.283-.36-.641-.647-1.045-.838s-.844-.281-1.286-.263c-.876-.03-1.743.179-2.615.223-2.029.095-4.01-.666-5.515-2.117-.857-.833-1.557-1.984-1.491-3.219.042-.759.363-1.463.466-2.207.349-2.142-.989-4.171-2.438-5.703-1.45-1.533-3.147-2.946-3.86-4.985-.881-2.519 0-5.336-.261-8.019-.434-4.826-4.298-8.516-8.168-10.529-.904-.471-2.372-1.667-1.37-2.882.252-.312.638-.471.9-.773.806-.928 0-2.455.298-3.68.057-.244.157-.475.294-.68-.975.194-1.865.779-2.103 1.771-.284 1.23.513 2.752-.294 3.685-.261.302-.648.461-.904.768-1.002 1.216.466 2.416 1.371 2.882 3.874 2.013 7.738 5.708 8.167 10.529.238 2.683-.62 5.5.266 8.024.708 2.034 2.41 3.472 3.86 4.985 1.449 1.512 2.797 3.556 2.438 5.698-.197.725-.352 1.462-.467 2.207-.065 1.235.639 2.386 1.497 3.219 1.502 1.452 3.483 2.213 5.51 2.118.876-.045 1.739-.248 2.615-.224.442-.017.882.073 1.286.264.404.19.761.477 1.045.837.466.7.518 1.692 1.133 2.247.402.301.871.484 1.361.531.583.114 1.319.153 1.613-.387.105-.221.15-.468.131-.714-.469-.049-.918-.229-1.301-.521z" fill="#000" opacity=".1"/><path d="m292.401 199.714h-32.245v-33.804h32.268zm-.466-50.969h-31.313c0-52.531 46.934-49.461 46.934-82.6946 0-18.3054-14.083-32.9706-31.289-32.9706-17.207 0-31.285 15.8108-31.285 33.4914h-31.29c-.014-8.7465 1.595-17.4099 4.735-25.4935s7.748-15.4283 13.562-21.613c5.813-6.1847 12.717-11.0877 20.315-14.4279 7.598-3.34019 15.741-5.0518495 23.963-5.036824 34.562 0 62.574 29.335324 62.574 66.050424 0 41.5556-46.929 46.2866-46.929 82.6946z" fill="#2c7f65"/><path d="m131.577 189.646h-8.317v-8.739h8.317zm-.126-13.143h-8.065c0-13.539 12.097-12.751 12.097-21.326-.004-1.122-.216-2.232-.624-3.266-.407-1.035-1.003-1.974-1.752-2.764s-1.636-1.415-2.613-1.84c-.976-.424-2.021-.64-3.075-.635-2.13.052-4.158.98-5.658 2.589-1.501 1.609-2.357 3.774-2.389 6.04h-8.064c.053-4.502 1.768-8.803 4.774-11.973s7.063-4.957 11.296-4.974c4.232-.018 8.302 1.735 11.331 4.88 3.03 3.145 4.776 7.431 4.862 11.933-.023 10.713-12.12 11.933-12.12 21.316z" fill="#2c7f65" opacity=".1"/><path d="m194.547 250.355h-8.317v-8.714h8.317zm-.122-13.138h-8.064c0-13.544 12.097-12.751 12.097-21.326-.004-1.121-.216-2.231-.624-3.266-.408-1.034-1.003-1.973-1.752-2.762-.749-.79-1.637-1.414-2.613-1.839-.976-.424-2.022-.639-3.076-.633-2.139.041-4.178.965-5.688 2.578-1.509 1.612-2.37 3.786-2.4 6.061h-8.065c.054-4.503 1.768-8.803 4.775-11.973 3.006-3.17 7.062-4.957 11.295-4.974 4.233-.018 8.303 1.735 11.332 4.88s4.775 7.431 4.862 11.933c.014 10.713-12.079 11.938-12.079 21.321z" fill="#2c7f65" opacity=".1"/><path d="m232.838 142.883h-6.028v-6.304h6.028zm-.089-9.527h-5.845c0-9.81 8.768-9.24 8.768-15.449-.003-.813-.157-1.617-.453-2.367-.296-.749-.728-1.429-1.27-2.001-.543-.572-1.187-1.025-1.894-1.332-.707-.308-1.464-.464-2.228-.46-1.548.033-3.022.705-4.113 1.872-1.09 1.168-1.712 2.741-1.733 4.387h-5.846c-.013-3.299 1.207-6.468 3.391-8.81s5.153-3.665 8.254-3.678 6.079 1.285 8.281 3.608c2.201 2.323 3.445 5.482 3.457 8.781-.009 7.761-8.769 8.649-8.769 15.449z" fill="#2c7f65" opacity=".1"/><path d="m335.788 151.78h-3.408v-3.571h3.408zm-.052-5.381h-3.324c0-5.545 4.956-5.222 4.956-8.734 0-.459-.086-.914-.252-1.337-.166-.424-.41-.809-.717-1.132-.307-.322-.671-.577-1.071-.749-.401-.173-.829-.258-1.261-.253-.874.019-1.707.398-2.323 1.058-.617.659-.969 1.548-.982 2.478h-3.305c.039-1.833.748-3.577 1.978-4.861s2.882-2.007 4.605-2.014 3.381.702 4.62 1.976 1.961 3.012 2.013 4.844c.019 4.36-4.937 4.88-4.937 8.724z" fill="#2c7f65" opacity=".1"/><path d="m387.887 314.188h-3.408v-3.57h3.408zm-.051-5.381h-3.305c0-5.549 4.96-5.222 4.96-8.733-.006-.927-.358-1.813-.978-2.464-.619-.65-1.457-1.013-2.327-1.008-.875.018-1.709.397-2.325 1.057-.617.66-.969 1.549-.981 2.479h-3.305c.039-1.832.748-3.577 1.978-4.861s2.882-2.007 4.605-2.014 3.381.702 4.62 1.976 1.961 3.012 2.013 4.845c.019 4.379-4.937 4.88-4.937 8.723z" fill="#2c7f65" opacity=".1"/></g></svg>