<svg width="469" height="415" viewBox="0 0 469 415" fill="none" xmlns="http://www.w3.org/2000/svg">
<g clip-path="url(#clip0)">
<path opacity="0.1" d="M333.131 414.995C359.536 414.995 380.942 412.75 380.942 409.981C380.942 407.212 359.536 404.967 333.131 404.967C306.726 404.967 285.32 407.212 285.32 409.981C285.32 412.75 306.726 414.995 333.131 414.995Z" fill="#2C7F65"/>
<path opacity="0.1" d="M205.413 6.07042C226.47 -2.25656 252.105 4.90494 273.997 15.3496C342.752 48.1616 392.843 110.448 432.64 173.904C447.049 196.882 460.736 220.871 466.153 246.521C477.183 298.73 448.415 352.778 399.49 371.719C382.853 378.166 364.574 380.809 346.267 382.282C313.715 384.906 280.01 383.864 247.719 374.149C224.69 367.205 202.905 356.037 182.011 343.697C123.661 309.219 70.3725 264.445 32.0018 209.752C15.173 185.763 0.936066 158.718 0.525834 131.04C0.115602 103.361 17.0703 75.5479 44.9661 70.8413C56.4992 68.8972 68.6989 70.9207 80.6003 73.0037C98.1237 76.0736 115.885 79.3022 133.208 77.9632C151.104 76.5695 174.38 69.1303 177.643 50.9538C181.098 31.4382 184.384 14.3875 205.413 6.07042Z" fill="#2C7F65"/>
<path d="M114.272 381.29C114.272 381.29 136.77 379.847 134.117 396.62C134.117 396.62 134.644 399.596 132.117 400.93C132.117 400.93 132.08 399.685 129.81 400.107C129.003 400.254 128.183 400.297 127.367 400.236C126.263 400.154 125.214 399.693 124.379 398.921C124.379 398.921 118.053 396.144 115.596 385.144C115.596 385.144 113.773 382.748 113.848 382.129L117.643 383.854C117.643 383.854 116.347 386.771 117.368 389.191C117.368 389.191 117.489 383.964 118.221 384.083C118.365 384.107 120.193 385.074 120.193 385.074C120.193 385.074 117.96 390.148 119.642 393.838C119.642 393.838 119.004 387.584 120.887 385.441L123.563 387.103C123.563 387.103 120.952 392.345 122.724 396.62C122.724 396.62 122.258 390.059 124.122 387.505L126.546 389.488C126.546 389.488 124.094 394.656 125.591 398.207C125.591 398.207 125.782 390.565 127.069 389.989C127.069 389.989 129.19 391.973 129.511 392.796C129.511 392.796 127.833 396.546 128.873 398.525C128.873 398.525 129.511 393.436 130.038 393.411C130.038 393.411 132.145 396.784 132.369 399.095C132.369 399.095 132.276 395.658 130.546 393.089C130.546 393.089 132.588 393.461 133.781 394.869C133.781 394.869 133.45 392.484 130.029 392.276C130.029 392.276 128.285 389.722 127.814 389.563C127.814 389.563 131.222 389.26 133.287 390.237C133.287 390.237 131.469 387.986 127.19 389.007L124.798 386.934C124.798 386.934 129.288 386.28 131.185 387.004C131.185 387.004 128.999 385.02 124.155 386.463L121.554 384.807C121.554 384.807 125.376 383.929 127.656 384.246C127.656 384.246 125.251 382.868 120.789 384.36L118.925 383.473C118.925 383.473 121.722 382.887 122.547 382.793C123.372 382.699 123.409 382.461 123.409 382.461C121.635 382.145 119.812 382.359 118.146 383.081C118.146 383.081 114.202 381.578 114.272 381.29Z" fill="#2C7F65"/>
<path opacity="0.1" d="M129.767 405.255C138.562 405.255 145.692 403.973 145.692 402.393C145.692 400.813 138.562 399.531 129.767 399.531C120.972 399.531 113.843 400.813 113.843 402.393C113.843 403.973 120.972 405.255 129.767 405.255Z" fill="#2C7F65"/>
<path d="M84.1338 370.008C84.1338 370.008 96.8184 369.194 95.322 378.652C95.401 379.131 95.3347 379.625 95.1328 380.062C94.9309 380.499 94.6037 380.856 94.1985 381.082C94.1985 381.082 94.1752 380.383 92.8978 380.621C92.4438 380.703 91.982 380.727 91.5226 380.69C90.8988 380.649 90.3053 380.389 89.8351 379.951C89.8351 379.951 86.2735 378.379 84.875 372.18C84.875 372.18 83.8494 370.826 83.8867 370.479L86.0311 371.471C86.0311 371.471 85.2992 373.117 85.8726 374.481C85.8726 374.481 85.9426 371.53 86.3388 371.599C86.4227 371.599 87.453 372.17 87.453 372.17C87.453 372.17 86.1943 375.031 87.1453 377.129C87.1453 377.129 86.7817 373.603 87.8445 372.393L89.3503 373.33C89.3503 373.33 87.8818 376.306 88.8841 378.696C88.8841 378.696 88.6277 374.997 89.6719 373.558L91.0378 374.689C91.0378 374.689 89.6393 377.6 90.5017 379.604C90.5017 379.604 90.6089 375.294 91.3362 374.972C91.3362 374.972 92.5296 376.093 92.7114 376.554C92.7114 376.554 91.779 378.667 92.3524 379.783C92.3524 379.783 92.7114 376.916 93.0097 376.901C93.0097 376.901 94.1985 378.801 94.3197 380.105C94.2602 378.9 93.9068 377.733 93.2941 376.718C93.9799 376.851 94.6138 377.196 95.1168 377.71C95.1168 377.71 94.935 376.366 93.0004 376.246C93.0004 376.246 92.0168 374.803 91.7557 374.719C91.7557 374.719 93.6764 374.545 94.8418 375.096C94.8418 375.096 93.8162 373.826 91.4014 374.402L90.0542 373.231C90.0542 373.231 92.5855 372.864 93.6577 373.271C93.6577 373.271 92.4223 372.15 89.6906 372.968L88.2268 372.031C89.3545 371.769 90.5094 371.664 91.6625 371.719C91.6625 371.719 90.3106 370.94 87.7933 371.783L86.7444 371.287C86.7444 371.287 88.3247 370.955 88.7862 370.905C89.2477 370.856 89.2757 370.717 89.2757 370.717C88.2743 370.54 87.2465 370.662 86.3062 371.069C86.3062 371.069 84.0965 370.171 84.1338 370.008Z" fill="#2C7F65"/>
<path opacity="0.1" d="M92.8701 383.517C97.8288 383.517 101.849 382.793 101.849 381.9C101.849 381.007 97.8288 380.284 92.8701 380.284C87.9114 380.284 83.8916 381.007 83.8916 381.9C83.8916 382.793 87.9114 383.517 92.8701 383.517Z" fill="#2C7F65"/>
<path d="M396.194 379.098C396.194 379.098 411.508 378.106 409.713 389.513C409.805 390.093 409.723 390.688 409.479 391.215C409.234 391.742 408.84 392.174 408.352 392.449C408.352 392.449 408.324 391.601 406.781 391.889C406.232 391.988 405.673 392.017 405.117 391.973C404.366 391.921 403.651 391.607 403.084 391.08C403.084 391.08 398.777 389.191 397.103 381.702C397.103 381.702 395.863 380.07 395.915 379.654L398.497 380.824C398.497 380.824 397.616 382.808 398.311 384.46C398.311 384.46 398.395 380.899 398.889 380.988C398.991 380.988 400.231 381.672 400.231 381.672C400.231 381.672 398.712 385.144 399.858 387.624C399.858 387.624 399.425 383.368 400.707 381.91L402.525 383.036C402.525 383.036 400.749 386.607 401.956 389.518C401.956 389.518 401.644 385.055 402.889 383.314L404.539 384.683C404.539 384.683 402.87 388.199 403.886 390.634C403.886 390.634 404.021 385.437 404.898 385.04C404.898 385.04 406.338 386.394 406.557 386.949C406.557 386.949 405.415 389.503 406.124 390.852C406.124 390.852 406.557 387.381 406.916 387.381C406.916 387.381 408.352 389.677 408.501 391.249C408.432 389.795 408.006 388.387 407.266 387.162C408.095 387.329 408.859 387.75 409.466 388.373C409.466 388.373 409.243 386.751 406.907 386.607C406.907 386.607 405.723 384.866 405.406 384.762C405.406 384.762 407.737 384.554 409.135 385.218C409.135 385.218 407.895 383.691 404.982 384.385L403.355 382.972C403.355 382.972 406.408 382.525 407.704 383.016C407.704 383.016 406.212 381.662 402.917 382.649L401.145 381.524C401.145 381.524 403.746 380.928 405.299 381.142C405.299 381.142 403.662 380.204 400.637 381.221L399.369 380.616C399.369 380.616 401.276 380.214 401.835 380.155C402.394 380.095 402.422 379.927 402.422 379.927C401.215 379.712 399.976 379.858 398.842 380.348C398.842 380.348 396.148 379.287 396.194 379.098Z" fill="#2C7F65"/>
<path opacity="0.1" d="M406.74 395.415C412.726 395.415 417.578 394.542 417.578 393.466C417.578 392.389 412.726 391.517 406.74 391.517C400.754 391.517 395.901 392.389 395.901 393.466C395.901 394.542 400.754 395.415 406.74 395.415Z" fill="#2C7F65"/>
<path d="M380.936 258.697C380.643 256.951 380.473 255.183 380.428 253.41C380.428 251.282 377.71 249.398 377.71 249.398C377.71 249.398 376.032 245.267 374.913 244.656C373.795 244.046 370.34 238.641 370.34 238.641C370.3 237.574 369.936 236.551 369.301 235.724C368.266 234.277 367.321 232.76 366.471 231.182C366.005 230.577 366.238 230.15 365.539 226.624C365.501 226.44 365.459 226.262 365.408 226.093C365.408 226.014 365.361 225.944 365.334 225.865C366.076 225.073 366.593 224.075 366.826 222.984C367.06 221.894 366.999 220.756 366.653 219.7C366.527 219.281 366.299 218.904 365.991 218.609C365.203 217.925 363.944 218.208 363.133 217.558L363.996 213.501C364.201 212.509 364.308 211.254 363.492 210.719C363.186 210.564 362.864 210.449 362.532 210.377C361.133 209.881 360.322 208.308 359.959 206.796C359.609 205.339 359.514 203.826 359.679 202.332C359.837 200.894 360.234 199.495 360.378 198.052C360.641 195.383 360.037 192.698 358.667 190.444C358.134 189.472 357.349 188.683 356.406 188.173C355.544 187.761 354.542 187.677 353.735 187.181C352.001 186.006 352.09 183.213 350.705 181.612C349.32 180.01 346.868 180.015 344.85 180.565C342.831 181.116 340.822 182.053 338.752 181.82C337.419 181.661 336.17 181.016 334.832 180.868C334.449 180.829 334.063 180.847 333.685 180.922V180.878C332.697 181.066 331.788 181.651 331.555 182.648C331.502 182.885 331.48 183.129 331.489 183.372C331.489 183.952 331.62 184.557 331.629 185.113C331.646 185.334 331.622 185.556 331.557 185.766C331.492 185.976 331.388 186.171 331.252 186.338C330.986 186.64 330.594 186.799 330.319 187.112C330.207 187.231 330.119 187.374 330.061 187.53C330.002 187.687 329.974 187.855 329.979 188.024C329.979 188.907 331.014 189.686 331.708 190.043H331.736C331.55 190.241 331.363 190.449 331.191 190.663C329.2 193.055 328.102 196.141 328.105 199.337C328.122 201.918 328.847 204.437 330.192 206.586C331.537 208.734 333.443 210.417 335.676 211.428L335.578 211.75C335.381 212.388 335.153 213.014 334.892 213.625C334.41 213.452 333.898 213.394 333.393 213.454C332.887 213.514 332.4 213.691 331.965 213.972C330.632 214.964 328.026 214.885 327.331 214.701C326.636 214.518 319.406 213.546 318.823 213.789C318.241 214.032 317.089 212.941 316.339 214.399C315.588 215.857 315.239 216.645 314.474 217.012C313.71 217.379 312.39 218.53 312.567 218.773C312.745 219.016 310.656 220.474 310.656 220.474C310.656 220.474 308.861 222.458 307.822 222.721C306.782 222.984 304.582 224.486 304.582 224.486L302.032 226.609C302.032 226.609 300.125 226.916 300.703 225.518C301.281 224.119 299.659 222.359 299.659 222.359C299.659 222.359 296.419 215.371 296.419 213.928C296.419 212.484 293.757 206.33 293.757 206.33L293.431 206.295L293.282 205.844C292.792 204.381 292.158 202.585 291.674 201.534C290.741 199.525 290.168 199.317 290.168 199.317C290.168 199.317 278.942 190.35 271.651 193.083C264.36 195.815 284.961 203.959 286.811 204.812C287.459 205.11 287.926 206.072 288.252 207.198C286.61 208.04 285.227 209.363 284.266 211.011C284.266 211.011 288.723 221.521 288.839 224.134C288.956 226.748 291.907 234.053 291.907 234.053C291.907 234.053 293.007 239.464 298.964 239.156C298.964 239.156 307.183 240.763 308.978 239.156C310.773 237.55 312.39 236.29 313.262 236.106C313.903 235.882 314.467 235.459 314.88 234.891C314.88 234.891 312.162 253.117 310.829 254.699C309.495 256.282 297.715 276.744 301.943 280.404C305.292 283.163 308.831 285.65 312.53 287.844C312.889 288.032 313.966 286.123 315.504 284.769C315.504 285.111 315.504 285.458 315.504 285.825C315.532 293.106 316.437 304.175 317.686 306.655C319.551 310.3 318.786 317.348 318.786 317.348C319.767 317.839 320.831 318.11 321.914 318.146C321.97 318.384 322.035 318.642 322.096 318.89C323.117 322.992 324.772 329.335 325.616 331.021C326.888 333.575 327.811 341.659 327.811 341.659C327.811 341.659 328.566 349.594 328.277 350.71C328.166 351.132 328.655 354.435 329.424 358.645C328.958 364.344 328.072 375.329 327.923 379.302C327.923 379.376 327.923 379.45 327.923 379.52V379.589C327.925 379.634 327.925 379.679 327.923 379.723C327.923 379.812 327.923 379.892 327.923 379.966C327.909 380.216 327.918 380.467 327.951 380.715C328.009 381.093 327.982 381.481 327.872 381.846C327.542 382.944 327.122 384.009 326.618 385.03C326.405 385.531 326.219 386.044 326.058 386.567C325.592 386.785 325.024 387.316 324.707 388.611C324.128 390.981 323.261 397.538 323.261 397.538C323.261 397.538 322.912 401.55 322.222 402.462C321.532 403.375 320.823 409.083 325.751 409.812C330.678 410.541 332.809 407.035 332.809 407.035L332.636 391.125V391.095C332.736 390.962 332.822 390.817 332.893 390.664V390.624C332.925 390.55 332.962 390.47 332.995 390.381L333.037 390.262L333.112 390.069C333.109 390.046 333.109 390.022 333.112 389.999C333.59 388.475 333.733 386.855 333.531 385.263V385.184V385.06C333.531 385.02 333.531 384.975 333.531 384.936V384.688C333.531 384.658 333.531 384.623 333.531 384.593C333.531 384.488 333.541 384.378 333.559 384.266C333.559 384.266 333.559 384.226 333.559 384.207L333.587 384.013V383.929C333.587 383.864 333.587 383.8 333.624 383.73C333.623 383.714 333.623 383.697 333.624 383.681C333.671 383.453 333.727 383.185 333.788 382.967V382.912L333.858 382.674C333.927 382.421 334.007 382.178 334.091 381.91V381.861C334.091 381.781 334.142 381.702 334.17 381.628V381.598C334.254 381.355 334.342 381.102 334.426 380.894L334.45 380.829L334.524 380.631L334.547 380.571L334.725 380.13L336.09 384.618C336.09 384.618 336.846 387.961 336.44 388.749C336.035 389.538 336.906 392.821 337.48 392.881L336.944 397.012C336.654 399.29 336.481 401.583 336.426 403.881C336.389 404.144 336.352 404.377 336.324 404.535C335.951 406.653 336.846 409.936 336.846 409.936C341.414 415.684 346.859 410.383 346.859 410.383C346.859 410.383 347.493 407.343 346.859 406.737C346.225 406.132 346.509 403.94 346.509 403.94C346.509 403.94 346.798 398.53 346.854 394.582C346.91 390.634 343.82 387.143 343.82 387.143L343.647 387.306C343.083 385.759 342.44 383.954 342.575 383.145C342.808 381.747 341.936 366.982 341.936 366.982C342.258 363.024 342.327 359.047 342.141 355.079C342.216 354.41 342.286 353.75 342.356 353.096C342.705 349.922 342.99 347.209 343.102 345.785V345.617C343.13 345.235 343.144 344.962 343.139 344.833C343.139 344.337 343.139 343.772 343.186 343.152C343.293 341.446 343.545 339.546 343.545 339.546L344.757 331.705C344.757 331.705 345.689 327.877 347.018 325.754L347.176 325.486C347.227 325.392 347.279 325.288 347.335 325.179L347.358 325.134C347.409 325.03 347.465 324.921 347.516 324.807L347.54 324.762C347.726 324.37 347.927 323.919 348.136 323.423C348.136 323.383 348.169 323.349 348.183 323.309L348.341 322.932C348.341 322.882 348.379 322.833 348.402 322.783C348.425 322.734 348.5 322.53 348.551 322.406C348.574 322.356 348.595 322.305 348.612 322.253C348.672 322.104 348.738 321.95 348.798 321.791L348.887 321.563C348.929 321.449 348.976 321.335 349.022 321.221L349.134 320.919C349.167 320.844 349.195 320.77 349.223 320.695L349.348 320.353C349.348 320.304 349.39 320.249 349.409 320.199C349.74 319.322 350.057 318.454 350.341 317.665C350.43 317.417 350.519 317.169 350.598 316.951C353.563 317.144 355.577 317.318 355.577 317.318C355.577 317.318 356.509 310.211 356.211 305.534C356.015 302.34 356.574 298.323 356.942 296.111C356.984 295.868 357.022 295.65 357.059 295.452L357.138 295.521C358.588 296.736 359.628 292.724 359.628 292.724C359.628 292.724 359.236 288.979 358.695 284.442L358.639 283.99C359.475 284.18 360.32 284.317 361.171 284.402C361.171 284.402 361.637 284.357 362.275 284.273C364.042 285.361 365.907 286.258 367.842 286.951L370.923 280.9C371.502 279.646 372.18 278.447 372.951 277.315C373.883 276.1 377.174 272.211 377.118 271.482C377.062 270.753 378.219 266.558 379.375 264.673C380.531 262.788 380.992 258.999 380.936 258.697ZM368.089 263.314C366.872 263.86 365.716 266.9 365.66 267.812C365.604 268.725 364.327 272.732 362.998 273.218C361.772 273.665 359.432 275.956 359.059 276.323C358.677 276.358 358.243 276.412 357.791 276.491C357.283 272.658 356.779 269.484 356.458 268.844C355.525 267.019 357.479 261.186 357.479 261.186C357.479 261.186 357.67 255.295 358.877 253.896C360.084 252.497 359.809 248.971 359.809 248.971C359.809 248.971 360.098 247.513 360.215 246.849C360.331 246.184 361.935 246.849 361.949 246.849C361.949 246.849 365.072 248.669 365.539 251.401C366.005 254.134 369.417 258.875 369.417 258.875C369.417 258.875 368.895 260.517 369.417 261.355C369.939 262.193 369.305 262.769 368.089 263.314Z" fill="url(#paint0_linear)"/>
<path d="M284.397 211.383C285.348 209.716 286.739 208.383 288.397 207.552C290.056 206.721 291.907 206.429 293.721 206.711V213.808H289.67L286.5 212.955L284.397 211.383Z" fill="#4C4981"/>
<path opacity="0.1" d="M284.397 211.383C285.348 209.716 286.739 208.383 288.397 207.552C290.056 206.721 291.907 206.429 293.721 206.711V213.808H289.67L286.5 212.955L284.397 211.383Z" fill="black"/>
<path d="M294.023 208.591L289.058 212.291C289.058 212.291 289.016 211.552 288.891 210.54C288.643 208.626 288.089 205.754 286.891 205.199C285.068 204.346 264.775 196.222 271.973 193.489C279.171 190.757 290.214 199.714 290.214 199.714C290.214 199.714 290.783 199.922 291.692 201.921C292.158 202.972 292.797 204.762 293.277 206.225C293.72 207.545 294.023 208.591 294.023 208.591Z" fill="#AE6E79"/>
<path d="M333.686 214.29L334.25 214.007L335.835 215.931L334.539 218.872L332.329 217.93L332.842 215.579L333.686 214.29Z" fill="#4C4981"/>
<path d="M326.176 386.537C326.176 386.537 324.749 386.359 324.18 388.725C323.612 391.09 322.754 397.652 322.754 397.652C322.754 397.652 322.414 401.654 321.728 402.567C321.043 403.479 320.362 409.178 325.206 409.902C330.049 410.626 332.161 407.129 332.161 407.129L331.989 391.224L326.176 386.537Z" fill="#444053"/>
<path d="M343.079 387.252C343.079 387.252 346.128 390.723 346.072 394.661C346.016 398.599 345.727 404 345.727 404C345.727 404 345.447 406.187 346.072 406.792C346.696 407.397 346.072 410.432 346.072 410.432C346.072 410.432 340.711 415.724 336.208 409.986C336.208 409.986 335.331 406.708 335.695 404.595C336.058 402.482 337.075 392.985 337.075 392.985L343.079 387.252Z" fill="#444053"/>
<path d="M350.631 314.729C350.631 314.729 347.554 323.884 346.239 326.007C344.925 328.13 344.021 331.958 344.021 331.958L342.822 339.779C342.589 341.528 342.455 343.29 342.422 345.056C342.477 346.817 339.457 372.467 339.457 372.467L334.669 378.959C334.669 378.959 332.562 383.507 332.902 385.407C333.243 387.306 332.674 390.322 331.97 391.229C331.97 391.229 331.858 397.181 331.686 398.505C331.513 399.829 332.315 403.603 331.686 404.268C331.056 404.932 322.679 404.635 322.451 403.539C322.222 402.443 323.476 397.171 323.476 397.171L324.217 392.077C324.217 392.077 325.7 389.29 325.36 388.377C325.019 387.465 325.984 385.347 326.04 385.164C326.096 384.98 327.639 382.009 327.355 380.859C327.07 379.708 329.15 355.238 329.15 355.238L335.019 311.391L350.631 314.729Z" fill="#AE6E79"/>
<path opacity="0.1" d="M350.631 314.729C350.631 314.729 350.165 316.108 349.526 317.918C348.51 320.775 347.046 324.708 346.239 326.007C344.93 328.13 344.016 331.958 344.016 331.958L342.818 339.784C342.586 341.533 342.454 343.295 342.422 345.061C342.422 345.756 341.983 350.184 341.424 355.288C340.562 363.089 339.457 372.472 339.457 372.472L334.669 378.964C334.669 378.964 334.427 379.46 334.124 380.244C333.522 381.732 332.674 384.147 332.902 385.392C333.243 387.271 332.674 390.302 331.97 391.214C331.97 391.214 331.853 397.166 331.686 398.49C331.518 399.814 332.315 403.583 331.686 404.253C331.056 404.922 322.679 404.62 322.451 403.529C322.222 402.438 323.476 397.161 323.476 397.161L324.217 392.062C324.217 392.062 325.7 389.275 325.355 388.363C325.01 387.45 325.984 385.332 326.04 385.149C326.096 384.965 327.639 381.995 327.355 380.844C327.136 379.966 328.287 365.598 328.823 358.784C329.005 356.642 329.122 355.248 329.122 355.248L334.17 317.526L334.581 314.486L334.991 311.401L350.631 314.729Z" fill="black"/>
<path d="M345.503 405.939C345.554 406.608 337.461 407.58 336.305 406.851C335.149 406.122 336.305 397.086 336.305 397.086L336.832 392.965C336.268 392.9 335.41 389.627 335.806 388.839C336.203 388.05 335.466 384.717 335.466 384.717L334.124 380.254L333.303 377.521C331.97 374.392 330.04 365.465 328.842 358.799C328.087 354.613 327.606 351.315 327.714 350.894C327.998 349.803 327.247 341.857 327.247 341.857C327.247 341.857 326.315 333.788 325.084 331.244C324.25 329.558 322.623 323.225 321.616 319.138C321.103 317.04 320.749 315.533 320.749 315.533C320.749 315.533 329.364 314.764 334.59 314.496C336.99 314.372 338.678 314.357 338.482 314.565C338.286 314.774 338.235 315.885 338.244 317.492C338.268 321.653 338.813 328.973 339.391 330.942C340.188 333.669 340.986 341.852 340.645 342.646C340.305 343.44 340.417 348.711 340.417 348.711C341.004 350.853 341.342 353.063 341.424 355.293C341.606 359.242 341.541 363.2 341.228 367.141C341.228 367.141 342.081 381.88 341.853 383.274C341.624 384.668 343.675 389.037 343.675 389.885C343.675 390.733 344.244 396.496 344.244 396.496C344.244 396.496 345.465 405.274 345.503 405.939Z" fill="#AE6E79"/>
<path d="M350.002 228.786L349.023 229.912L348.384 230.646L344.655 234.911L335.019 236.067L329.891 234.609L328.623 234.246C328.623 234.246 328.623 231.509 328.851 228.226C329.178 224.015 329.956 218.902 331.816 217.508C332.748 216.733 333.491 215.731 333.984 214.587C334.356 213.798 334.668 212.979 334.916 212.137C334.954 212.028 334.982 211.924 335.014 211.815C335.434 210.345 335.736 208.84 335.919 207.316C335.919 207.316 337.149 206.592 338.86 205.749C343.321 203.532 351.027 200.472 348.347 207.316C347.953 208.319 347.617 209.346 347.34 210.391C347.298 210.545 347.261 210.699 347.228 210.848C346.333 214.657 346.925 216.968 347.592 218.242C347.704 218.463 347.834 218.674 347.979 218.872C348.161 219.138 348.379 219.374 348.627 219.571L349.736 227.065L349.829 227.685L350.002 228.786Z" fill="#AE6E79"/>
<path opacity="0.1" d="M348.351 207.683C347.843 208.983 348.598 206.622 348.351 207.683C346.319 209.221 341.531 213.6 338.841 213.6C337.023 213.6 336.478 213.248 334.921 212.499C335.392 210.93 335.728 209.318 335.923 207.683C335.923 207.683 352.057 198.221 348.351 207.683Z" fill="black"/>
<path d="M352.458 199.714C352.455 202.98 351.317 206.13 349.263 208.557C347.209 210.984 344.383 212.517 341.33 212.861C340.901 212.906 340.468 212.936 340.03 212.936C337.572 212.936 335.169 212.16 333.125 210.707C331.081 209.254 329.488 207.189 328.548 204.773C327.607 202.357 327.361 199.699 327.84 197.134C328.32 194.569 329.504 192.213 331.242 190.364C332.98 188.515 335.194 187.256 337.605 186.746C340.016 186.235 342.515 186.497 344.786 187.498C347.057 188.499 348.998 190.193 350.363 192.368C351.729 194.542 352.458 197.098 352.458 199.714Z" fill="#AE6E79"/>
<path opacity="0.1" d="M354.225 258.325L352.453 263.24C352.453 263.24 351.013 263.304 348.766 263.379C341.181 263.636 324.469 263.964 323.723 261.891C323.556 261.365 323.468 260.814 323.462 260.259C323.364 257.1 324.749 252.249 324.749 252.249C324.749 252.249 325.546 242.544 325.546 242.122C325.546 241.701 324.861 234.901 324.861 234.901L326.231 229.446L330.049 226.594C330.049 226.594 331.76 229.386 332.785 229.624C333.811 229.862 335.182 231.206 335.182 231.206C335.182 231.206 338.543 233.389 339.629 232.173C340.715 230.958 349.148 225.622 349.148 225.622L353.595 230.839L354.225 258.325Z" fill="black"/>
<path d="M354.225 259.079L352.454 263.989C352.454 263.989 351.013 264.058 348.767 264.132H348.547C347.578 264.167 346.468 264.202 345.284 264.227C339.257 264.375 330.954 264.415 326.614 263.731C324.982 263.483 323.915 263.126 323.738 262.64C323.639 262.347 323.571 262.045 323.533 261.737C323.505 261.509 323.486 261.241 323.477 261.008C323.379 257.849 324.763 252.998 324.763 252.998C324.763 252.998 325.56 243.293 325.56 242.871C325.56 242.45 324.875 235.65 324.875 235.65L326.246 230.195L328.87 228.241L330.064 227.348C330.465 227.987 330.903 228.6 331.374 229.183C331.742 229.708 332.234 230.121 332.8 230.378C333.83 230.621 335.196 231.96 335.196 231.96C335.196 231.96 338.557 234.142 339.644 232.927C340.469 232 345.597 228.662 347.965 227.14C348.692 226.668 349.163 226.376 349.163 226.376L349.759 227.08L353.61 231.593L354.225 259.079Z" fill="white"/>
<path opacity="0.1" d="M294.023 208.591L289.058 212.291C289.058 212.291 289.016 211.552 288.891 210.54C291.343 209.439 292.834 207.004 293.263 206.225C293.72 207.545 294.023 208.591 294.023 208.591Z" fill="black"/>
<path d="M311.468 221.148L310.386 220.841C310.386 220.841 308.615 222.825 307.589 223.088C306.564 223.35 304.401 224.843 304.401 224.843L301.888 226.966C301.888 226.966 300.023 227.273 300.578 225.875C301.133 224.476 299.552 222.721 299.552 222.721C299.552 222.721 296.359 215.748 296.359 214.29C296.359 212.831 293.721 206.711 293.721 206.711C293.721 206.711 290.411 213.565 284.369 211.383C284.369 211.383 288.76 221.873 288.872 224.481C288.984 227.09 291.893 234.366 291.893 234.366C291.893 234.366 292.979 239.766 298.848 239.464C298.848 239.464 306.946 241.066 308.713 239.464C310.479 237.862 312.074 236.602 312.908 236.419C313.743 236.235 314.503 235.209 314.503 235.209V227.998L311.468 221.148Z" fill="#4C4981"/>
<path opacity="0.1" d="M301.319 227.997C301.319 227.997 302.746 233.641 301.832 234.247L301.319 227.997Z" fill="black"/>
<path opacity="0.1" d="M348.766 264.108C341.181 264.365 324.469 264.688 323.723 262.62C323.556 262.094 323.468 261.543 323.462 260.988L348.239 262.377L348.766 264.108Z" fill="black"/>
<path opacity="0.1" d="M350.631 314.729C350.631 314.729 350.165 316.108 349.526 317.918C346.38 317.715 342.212 317.501 338.254 317.472C336.856 317.472 335.485 317.472 334.189 317.521C331.439 317.611 329.061 317.849 327.546 318.305C325.631 318.932 323.628 319.207 321.626 319.118C321.113 317.02 320.759 315.513 320.759 315.513C320.759 315.513 329.374 314.744 334.599 314.476L335.01 311.391L350.631 314.729Z" fill="black"/>
<path d="M357.302 292.53L356.332 294.713C356.332 294.713 356.197 295.362 356.025 296.394C355.661 298.616 355.092 302.623 355.307 305.817C355.591 310.489 354.677 317.581 354.677 317.581C354.677 317.581 333.7 315.701 327.546 317.581C321.393 319.46 318.362 317.581 318.362 317.581C318.362 317.581 319.108 310.548 317.281 306.908C316.036 304.428 315.16 293.359 315.132 286.078C315.132 282.721 315.29 280.176 315.687 279.661C316.941 278.024 322.297 261.648 322.297 261.648L323.518 261.717L326.781 261.901L345.335 262.942L348.249 263.106L348.556 264.098L357.302 292.53Z" fill="#444053"/>
<path d="M366.536 285.25L366.709 287.194C366.709 287.194 357.521 284.01 357.987 280.097C358.453 276.184 357.987 276.625 357.987 276.625L365.371 277.29L366.536 285.25Z" fill="#4C4981"/>
<path opacity="0.1" d="M366.536 285.25L366.709 287.194C366.709 287.194 357.521 284.01 357.987 280.097C358.453 276.184 357.987 276.625 357.987 276.625L365.371 277.29L366.536 285.25Z" fill="black"/>
<path opacity="0.1" d="M307.45 229.565C308.388 230.413 309.494 231.025 310.685 231.355C310.34 231.276 310.019 231.105 309.752 230.859C309.095 230.363 308.47 229.823 307.836 229.297C307.324 228.87 306.685 228.161 306.056 227.988C306.468 228.563 306.935 229.092 307.45 229.565Z" fill="black"/>
<path opacity="0.1" d="M307.589 232.119C307.885 232.474 308.124 232.878 308.298 233.314C308.592 234.549 308.574 235.844 308.247 237.068L306.774 233.289C306.517 232.645 306.261 232 305.953 231.385C305.818 231.122 304.97 230.026 305.067 229.798C305.328 229.153 307.314 231.757 307.589 232.119Z" fill="black"/>
<path opacity="0.1" d="M348.692 253.048C349.696 252.919 350.635 252.451 351.372 251.714C349.857 251.917 348.421 252.552 346.93 252.884C345.545 253.227 344.093 253.084 342.79 252.478C344.506 253.37 346.864 253.4 348.692 253.048Z" fill="black"/>
<path opacity="0.1" d="M344.407 241.944C344.136 241.987 343.859 241.913 343.638 241.74C342.501 241.046 341.379 240.322 340.272 239.568C339.196 238.829 337.895 238.08 336.977 237.148C339.237 239.32 341.345 241.155 344.407 241.944Z" fill="black"/>
<path opacity="0.1" d="M347.568 254.809C348.165 254.837 348.763 254.786 349.349 254.655C349.941 254.524 350.464 254.159 350.812 253.633C350.601 253.581 350.379 253.619 350.192 253.737C348.386 254.546 346.402 254.799 344.468 254.466C345.395 254.888 346.584 254.804 347.568 254.809Z" fill="black"/>
<path opacity="0.1" d="M336.772 282.968C335.585 283.349 334.365 283.603 333.131 283.727C332.17 283.774 331.208 283.755 330.25 283.668L325.588 283.355L323.257 283.197C322.982 283.197 321.859 283.197 322.414 282.606C322.693 282.319 324.25 282.502 324.651 282.487C325.425 282.461 326.202 282.446 326.982 282.443C328.525 282.443 330.073 282.443 331.616 282.542C333.345 282.631 335.047 282.77 336.772 282.968Z" fill="black"/>
<path opacity="0.1" d="M331.369 285.424C330.576 285.389 329.555 285.89 328.739 285.999C327.827 286.114 326.907 286.152 325.989 286.113C324.172 286.067 322.377 285.677 320.688 284.962C324.245 285.156 327.812 285.27 331.369 285.424Z" fill="black"/>
<path opacity="0.1" d="M321.383 288.022C321.728 288.096 322.067 288.196 322.399 288.32C324.367 288.915 326.46 288.389 328.46 287.863C327.961 288.662 327.061 289.004 326.161 289.222C324.698 289.617 323.172 289.676 321.686 289.396C321.22 289.297 320.05 289.118 319.821 288.602C319.439 287.844 320.945 287.948 321.383 288.022Z" fill="black"/>
<path opacity="0.1" d="M332.413 291.935C333.003 292.064 333.585 292.229 334.156 292.431C336.37 293.016 338.669 292.213 340.892 291.672C343.565 291.027 346.307 290.756 349.046 290.869C348.556 290.869 347.778 291.325 347.298 291.479C346.668 291.682 346.03 291.871 345.391 292.039C344.137 292.367 342.864 292.635 341.582 292.828C338.994 293.226 336.375 293.347 333.765 293.19C332.571 293.121 330.501 293.249 329.48 292.61C330.363 292.052 331.392 291.815 332.413 291.935Z" fill="black"/>
<path opacity="0.1" d="M333.247 217.136C333.247 217.136 333.359 222.721 332.506 225.27C332.236 226.063 331.816 227.526 331.359 229.168C330.861 230.988 330.315 233.026 329.896 234.623C329.476 236.22 329.196 237.292 329.196 237.292C329.196 237.292 327.271 253.975 326.772 261.925C326.772 262.064 326.772 262.208 326.744 262.342C326.716 262.788 326.67 263.255 326.6 263.736C325.49 271.631 319.09 283.807 316.941 284.779C316.27 285.106 315.658 285.554 315.132 286.103C315.132 282.745 315.29 280.201 315.687 279.685C316.941 278.049 322.297 261.673 322.297 261.673L323.518 261.742C323.49 261.514 323.472 261.246 323.462 261.013C323.364 257.854 324.749 253.003 324.749 253.003C324.749 253.003 325.546 243.298 325.546 242.876C325.546 242.454 324.861 235.655 324.861 235.655L326.231 230.2L328.856 228.246C329.182 224.035 329.961 218.922 331.821 217.528C332.752 216.752 333.496 215.751 333.989 214.607C334.357 214.661 333.686 214.314 333.686 214.314L333.247 217.136Z" fill="black"/>
<path d="M334.25 214.007C333.775 213.834 333.269 213.775 332.77 213.835C332.271 213.896 331.791 214.073 331.364 214.354C330.05 215.346 327.486 215.262 326.8 215.083C326.115 214.905 318.992 213.928 318.409 214.171C317.826 214.414 316.698 213.322 315.957 214.781C315.216 216.239 314.876 217.022 314.134 217.384C313.393 217.746 312.079 218.902 312.27 219.145C312.461 219.388 310.405 220.841 310.405 220.841L314.563 235.224C314.563 235.224 311.883 253.415 310.573 254.992C309.263 256.569 297.632 277.007 301.795 280.647C305.09 283.404 308.578 285.891 312.228 288.087C312.694 288.33 314.335 285.056 316.614 284.025C318.894 282.993 325.966 269.345 326.404 261.583C326.842 253.822 328.856 236.538 328.856 236.538C328.856 236.538 331.308 227.075 332.161 224.526C333.014 221.977 332.902 216.392 332.902 216.392L334.25 214.007Z" fill="#4C4981"/>
<path opacity="0.1" d="M357.302 292.53L356.332 294.713C356.332 294.713 356.197 295.362 356.024 296.394C355.851 296.371 355.689 296.293 355.558 296.171C354.132 294.956 345.769 285.8 345.354 277.672C345.06 271.676 345.2 266.508 345.293 264.207C345.321 263.483 345.349 263.046 345.349 262.952C345.349 262.952 351.847 254.58 351.106 251.615C350.365 248.649 348.654 232.769 348.654 232.769L348.402 230.686L347.969 227.164L346.934 218.644L348.006 218.912C348.188 219.178 348.407 219.414 348.654 219.611L349.764 227.105L353.614 231.618L354.244 259.094L352.472 264.003C352.472 264.003 351.032 264.073 348.785 264.147H348.566L357.302 292.53Z" fill="black"/>
<path d="M360.891 247.176C360.891 247.176 359.297 246.506 359.185 247.176C359.073 247.845 358.784 249.294 358.784 249.294C358.784 249.294 359.068 252.815 357.852 254.208C356.635 255.602 356.453 261.484 356.453 261.484C356.453 261.484 354.533 267.306 355.442 269.127C355.773 269.786 356.285 273.094 356.798 277.062C357.124 279.542 357.446 282.264 357.73 284.754C358.248 289.277 358.635 293.021 358.635 293.021C358.635 293.021 357.605 297.024 356.178 295.809C354.752 294.594 346.388 285.438 345.978 277.31C345.699 271.601 345.81 266.642 345.904 264.197C345.941 263.16 345.978 262.575 345.978 262.575C345.978 262.575 352.477 254.204 351.736 251.233C350.994 248.262 349.283 232.387 349.283 232.387L348.985 229.932L348.663 227.293L348.589 226.713L347.559 218.282C347.74 218.327 354.136 219.864 354.98 220.762C355.824 221.659 361.04 222.944 361.04 222.944C361.827 223.171 362.542 223.618 363.111 224.239C363.68 224.86 364.082 225.632 364.276 226.475C364.327 226.644 364.364 226.822 364.401 227.006C365.087 230.527 364.868 230.948 365.334 231.558C365.8 232.169 360.891 247.176 360.891 247.176Z" fill="#4C4981"/>
<path opacity="0.1" d="M357.768 284.749C355.437 284.253 351.978 283.107 352.057 280.578C352.127 278.212 354.803 277.359 356.831 277.057C357.157 279.527 357.479 282.259 357.768 284.749Z" fill="black"/>
<path d="M364.998 283.489C364.905 283.703 364.532 283.886 364.001 284.05C362.754 284.365 361.487 284.586 360.211 284.709C360.211 284.709 352.286 284.04 352.398 280.216C352.482 277.473 356.062 276.744 358.071 276.581C358.516 276.536 358.962 276.517 359.409 276.521C359.409 276.521 365.339 282.706 364.998 283.489Z" fill="#AE6E79"/>
<path opacity="0.1" d="M364.999 283.489C364.906 283.703 364.533 283.886 364.001 284.05C361.936 281.109 359.055 277.335 357.643 277.002L358.071 276.581C358.516 276.536 358.963 276.517 359.409 276.521C359.409 276.521 365.339 282.706 364.999 283.489Z" fill="black"/>
<path d="M363.003 231.152L365.334 231.519C366.176 233.096 367.11 234.615 368.131 236.067C368.758 236.895 369.117 237.916 369.157 238.978C369.157 238.978 372.578 244.374 373.66 244.979C374.742 245.584 376.396 249.71 376.396 249.71C376.396 249.71 379.077 251.59 379.077 253.713C379.124 255.483 379.296 257.246 379.59 258.989C379.65 259.292 379.194 263.056 378.051 264.941C376.909 266.825 375.767 270.981 375.828 271.725C375.888 272.469 372.634 276.338 371.725 277.548C370.967 278.679 370.299 279.877 369.73 281.129L366.709 287.194C366.709 287.194 360.323 277.186 357.987 276.64C357.987 276.64 360.607 273.972 361.917 273.486C363.227 273 364.486 269.022 364.542 268.09C364.598 267.158 365.74 264.147 366.933 263.627C368.127 263.106 368.761 262.535 368.248 261.682C367.735 260.829 368.248 259.203 368.248 259.203C368.248 259.203 364.882 254.471 364.425 251.763C363.968 249.056 360.892 247.216 360.892 247.216L359.125 242.603L363.003 231.152Z" fill="#4C4981"/>
<path opacity="0.1" d="M371.483 253.792C372.772 252.633 374.396 251.979 376.084 251.937C375.002 252.135 373.865 252.388 373.072 253.192C372.761 253.54 372.482 253.918 372.238 254.323C371.967 254.734 369.767 257.71 369.441 257.239C368.895 256.549 371.04 254.194 371.483 253.792Z" fill="black"/>
<path opacity="0.1" d="M366.317 250.92C366.666 250.888 367.001 250.758 367.287 250.543C367.573 250.327 367.8 250.035 367.944 249.695C368.222 249.012 368.394 248.285 368.452 247.543C368.619 246.301 368.854 245.071 369.156 243.858C369.247 243.618 369.285 243.36 369.268 243.102C369.251 242.844 369.18 242.594 369.058 242.37C368.933 241.983 368.764 241.613 368.555 241.269C368.135 241.765 368.014 242.921 367.842 243.585C367.627 244.409 367.432 245.237 367.245 246.065C367.147 246.462 366.373 250.92 366.317 250.92Z" fill="black"/>
<path opacity="0.1" d="M364.299 226.435C364.069 226.755 363.805 227.045 363.511 227.298C362.579 228.087 361.343 228.751 361.227 229.996C361.259 230.401 361.212 230.808 361.087 231.191C360.789 231.737 360.057 231.687 359.474 231.583C358.982 231.536 358.511 231.351 358.108 231.048C357.498 230.492 357.442 229.5 356.975 228.801C356.692 228.44 356.335 228.153 355.93 227.963C355.526 227.773 355.086 227.685 354.645 227.705C353.773 227.675 352.906 227.883 352.034 227.923C351.474 227.953 350.912 227.913 350.36 227.804C350.178 227.774 349.998 227.735 349.82 227.685C349.43 227.583 349.05 227.445 348.682 227.273C348.492 227.193 348.307 227.1 348.128 226.996C347.544 226.677 347.003 226.277 346.519 225.805C345.666 224.972 344.958 223.822 345.027 222.587C345.069 221.828 345.391 221.129 345.494 220.38C345.843 218.237 344.505 216.214 343.056 214.681C342.477 214.071 341.862 213.481 341.284 212.861C340.384 211.978 339.673 210.899 339.2 209.697C338.811 208.418 338.684 207.065 338.827 205.729C338.958 204.375 338.994 203.013 338.935 201.653C338.506 196.832 334.636 193.137 330.767 191.129L330.595 191.034C331.743 189.633 333.155 188.505 334.741 187.724C336.327 186.943 338.049 186.526 339.796 186.502C341.543 186.477 343.276 186.844 344.88 187.58C346.485 188.316 347.925 189.404 349.108 190.773C350.29 192.141 351.188 193.76 351.742 195.523C352.297 197.285 352.496 199.153 352.326 201.003C352.156 202.853 351.621 204.644 350.756 206.259C349.891 207.874 348.716 209.277 347.307 210.376C347.265 210.53 347.228 210.684 347.195 210.833C346.3 214.642 346.892 216.953 347.559 218.227C347.741 218.272 354.136 219.809 354.98 220.707C355.824 221.605 361.04 222.889 361.04 222.889C361.833 223.114 362.554 223.562 363.128 224.186C363.701 224.81 364.106 225.587 364.299 226.435Z" fill="black"/>
<path d="M329.775 187.538C330.031 187.226 330.418 187.067 330.679 186.764C331.486 185.832 330.679 184.309 330.973 183.079C331.29 181.716 332.865 181.12 334.18 181.264C335.495 181.408 336.725 182.053 338.04 182.212C340.082 182.455 342.058 181.512 344.049 180.962C346.04 180.411 348.445 180.382 349.816 182.003C351.186 183.625 351.093 186.387 352.799 187.563C353.587 188.103 354.58 188.163 355.433 188.555C356.366 189.064 357.141 189.852 357.661 190.821C359.012 193.078 359.606 195.753 359.349 198.414C359.204 199.852 358.813 201.251 358.654 202.689C358.493 204.183 358.588 205.695 358.934 207.153C359.293 208.641 360.071 210.248 361.465 210.724C361.787 210.799 362.1 210.914 362.397 211.066C363.204 211.601 363.097 212.861 362.892 213.843L362.062 217.915C362.859 218.56 364.099 218.282 364.859 218.961C365.163 219.257 365.389 219.634 365.512 220.052C365.886 221.191 365.927 222.424 365.628 223.588C365.329 224.752 364.705 225.791 363.838 226.569C362.906 227.358 361.67 228.022 361.554 229.262C361.589 229.667 361.542 230.075 361.414 230.457C361.12 231.003 360.384 230.953 359.801 230.849C359.311 230.801 358.841 230.616 358.44 230.314C357.824 229.758 357.773 228.766 357.307 228.067C357.023 227.707 356.665 227.42 356.261 227.23C355.857 227.04 355.417 226.952 354.976 226.971C354.1 226.941 353.237 227.149 352.361 227.194C350.339 227.282 348.366 226.524 346.865 225.081C346.007 224.243 345.303 223.098 345.368 221.858C345.41 221.104 345.732 220.4 345.834 219.651C346.179 217.513 344.846 215.485 343.396 213.952C341.946 212.42 340.245 211.006 339.536 208.968C338.651 206.444 339.508 203.627 339.271 200.948C338.842 196.123 334.977 192.433 331.103 190.42C330.241 189.948 328.772 188.753 329.775 187.538Z" fill="#444053"/>
<path opacity="0.1" d="M360.262 229.188C359.647 228.627 359.595 227.641 359.129 226.941C358.846 226.581 358.488 226.294 358.084 226.103C357.68 225.912 357.24 225.822 356.798 225.84C355.922 225.81 355.055 226.019 354.183 226.063C352.154 226.158 350.173 225.397 348.668 223.946C347.811 223.113 347.111 221.962 347.177 220.727C347.219 219.968 347.54 219.264 347.643 218.52C347.992 216.378 346.654 214.349 345.205 212.817C343.755 211.284 342.058 209.871 341.345 207.832C340.464 205.313 341.345 202.496 341.084 199.813C340.65 194.987 336.786 191.297 332.916 189.284C332.012 188.813 330.544 187.617 331.546 186.402C331.798 186.09 332.184 185.931 332.446 185.629C333.252 184.701 332.446 183.174 332.744 181.949C332.801 181.705 332.901 181.474 333.038 181.269C332.063 181.463 331.173 182.048 330.935 183.04C330.651 184.27 331.448 185.792 330.641 186.725C330.38 187.027 329.993 187.186 329.737 187.493C328.735 188.709 330.203 189.909 331.108 190.375C334.982 192.388 338.846 196.083 339.275 200.904C339.513 203.587 338.655 206.404 339.541 208.928C340.249 210.962 341.951 212.4 343.401 213.913C344.85 215.425 346.198 217.469 345.839 219.611C345.642 220.336 345.487 221.073 345.372 221.818C345.307 223.053 346.011 224.204 346.869 225.037C348.371 226.489 350.352 227.25 352.379 227.155C353.255 227.11 354.118 226.907 354.994 226.931C355.436 226.914 355.876 227.004 356.28 227.195C356.684 227.385 357.041 227.672 357.325 228.032C357.791 228.732 357.843 229.724 358.458 230.279C358.86 230.58 359.329 230.763 359.819 230.81C360.402 230.924 361.138 230.963 361.432 230.423C361.537 230.202 361.582 229.955 361.563 229.709C361.094 229.66 360.645 229.48 360.262 229.188Z" fill="black"/>
<path d="M292.401 199.714H260.156V165.91H292.424L292.401 199.714ZM291.935 148.745H260.622C260.622 96.214 307.556 99.284 307.556 66.0504C307.556 47.745 293.473 33.0798 276.267 33.0798C259.06 33.0798 244.982 48.8906 244.982 66.5712H213.692C213.678 57.8247 215.287 49.1613 218.427 41.0777C221.567 32.9941 226.175 25.6494 231.989 19.4647C237.802 13.28 244.706 8.377 252.304 5.0368C259.902 1.69661 268.045 -0.0150495 276.267 -2.39986e-05C310.829 -2.39986e-05 338.841 29.3353 338.841 66.0504C338.841 107.606 291.912 112.337 291.912 148.745H291.935Z" fill="#2C7F65"/>
<path opacity="0.1" d="M131.577 189.646H123.26V180.907H131.577V189.646ZM131.451 176.503H123.386C123.386 162.964 135.483 163.752 135.483 155.177C135.479 154.055 135.267 152.945 134.859 151.911C134.452 150.876 133.856 149.937 133.107 149.147C132.358 148.357 131.471 147.732 130.494 147.307C129.518 146.883 128.473 146.667 127.419 146.672C125.289 146.724 123.261 147.652 121.761 149.261C120.26 150.87 119.404 153.035 119.372 155.301H111.308C111.361 150.799 113.076 146.498 116.082 143.328C119.088 140.158 123.145 138.371 127.378 138.354C131.61 138.336 135.68 140.089 138.709 143.234C141.739 146.379 143.485 150.665 143.571 155.167C143.548 165.88 131.451 167.1 131.451 176.483V176.503Z" fill="#2C7F65"/>
<path opacity="0.1" d="M194.547 250.355H186.23V241.641H194.547V250.355ZM194.425 237.217H186.361C186.361 223.673 198.458 224.466 198.458 215.891C198.454 214.77 198.242 213.66 197.834 212.625C197.426 211.591 196.831 210.652 196.082 209.863C195.333 209.073 194.445 208.449 193.469 208.024C192.493 207.6 191.447 207.385 190.393 207.391C188.254 207.432 186.215 208.356 184.705 209.969C183.196 211.581 182.335 213.755 182.305 216.03H174.24C174.294 211.527 176.008 207.227 179.015 204.057C182.021 200.887 186.077 199.1 190.31 199.083C194.543 199.065 198.613 200.818 201.642 203.963C204.671 207.108 206.417 211.394 206.504 215.896C206.518 226.609 194.425 227.834 194.425 237.217Z" fill="#2C7F65"/>
<path opacity="0.1" d="M232.838 142.883H226.81V136.579H232.838V142.883ZM232.749 133.356H226.904C226.904 123.546 235.672 124.116 235.672 117.907C235.669 117.094 235.515 116.29 235.219 115.54C234.923 114.791 234.491 114.111 233.949 113.539C233.406 112.967 232.762 112.514 232.055 112.207C231.348 111.899 230.591 111.743 229.827 111.747C228.279 111.78 226.805 112.452 225.714 113.619C224.624 114.787 224.002 116.36 223.981 118.006H218.135C218.122 114.707 219.342 111.538 221.526 109.196C223.71 106.854 226.679 105.531 229.78 105.518C232.881 105.505 235.859 106.803 238.061 109.126C240.262 111.449 241.506 114.608 241.518 117.907C241.509 125.668 232.749 126.556 232.749 133.356Z" fill="#2C7F65"/>
<path opacity="0.1" d="M335.788 151.78H332.38V148.209H335.788V151.78ZM335.736 146.399H332.412C332.412 140.854 337.368 141.177 337.368 137.665C337.368 137.206 337.282 136.751 337.116 136.328C336.95 135.904 336.706 135.519 336.399 135.196C336.092 134.874 335.728 134.619 335.328 134.447C334.927 134.274 334.499 134.189 334.067 134.194C333.193 134.213 332.36 134.592 331.744 135.252C331.127 135.911 330.775 136.8 330.762 137.73H327.457C327.496 135.897 328.205 134.153 329.435 132.869C330.665 131.585 332.317 130.862 334.04 130.855C335.763 130.848 337.421 131.557 338.66 132.831C339.899 134.105 340.621 135.843 340.673 137.675C340.692 142.035 335.736 142.555 335.736 146.399Z" fill="#2C7F65"/>
<path opacity="0.1" d="M387.887 314.188H384.479V310.618H387.887V314.188ZM387.836 308.807H384.531C384.531 303.258 389.491 303.585 389.491 300.074C389.485 299.147 389.133 298.261 388.513 297.61C387.894 296.96 387.056 296.597 386.186 296.602C385.311 296.62 384.477 296.999 383.861 297.659C383.244 298.319 382.892 299.208 382.88 300.138H379.575C379.614 298.306 380.323 296.561 381.553 295.277C382.783 293.993 384.435 293.27 386.158 293.263C387.881 293.256 389.539 293.965 390.778 295.239C392.017 296.513 392.739 298.251 392.791 300.084C392.81 304.463 387.854 304.964 387.854 308.807H387.836Z" fill="#2C7F65"/>
</g>
<defs>
<linearGradient id="paint0_linear" x1="325.532" y1="412.654" x2="325.532" y2="180.178" gradientUnits="userSpaceOnUse">
<stop stop-color="#808080" stop-opacity="0.25"/>
<stop offset="0.54" stop-color="#808080" stop-opacity="0.12"/>
<stop offset="1" stop-color="#808080" stop-opacity="0.1"/>
</linearGradient>
<clipPath id="clip0">
<rect width="468" height="415" fill="white" transform="translate(0.516602)"/>
</clipPath>
</defs>
</svg>
