<svg width="238" height="211" viewBox="0 0 238 211" fill="none" xmlns="http://www.w3.org/2000/svg">
<g clip-path="url(#clip0)">
<path opacity="0.1" d="M168.556 210.103C181.927 210.103 192.767 208.967 192.767 207.566C192.767 206.164 181.927 205.028 168.556 205.028C155.184 205.028 144.344 206.164 144.344 207.566C144.344 208.967 155.184 210.103 168.556 210.103Z" fill="#2C7F65"/>
<path opacity="0.1" d="M103.878 3.17709C114.541 -1.03656 127.523 2.58733 138.609 7.87259C173.428 24.4762 198.794 55.9946 218.948 88.1052C226.245 99.7322 233.176 111.871 235.919 124.851C241.505 151.27 226.937 178.62 202.161 188.204C193.735 191.466 184.479 192.804 175.208 193.549C158.723 194.877 141.655 194.35 125.302 189.434C113.64 185.92 102.608 180.268 92.0271 174.025C62.4776 156.578 35.4919 133.921 16.0606 106.245C7.53834 94.1057 0.328619 80.4207 0.120874 66.4145C-0.0868719 52.4083 8.49916 38.3344 22.6259 35.9527C28.4663 34.969 34.6444 35.9929 40.6714 37.0469C49.5454 38.6004 58.5399 40.2341 67.3124 39.5565C76.3753 38.8513 88.1625 35.0869 89.815 25.8892C91.5644 16.0138 93.2287 7.38572 103.878 3.17709Z" fill="#2C7F65"/>
<path d="M57.7228 193.047C57.7228 193.047 69.1157 192.317 67.7725 200.805C67.7725 200.805 68.0392 202.31 66.7597 202.986C66.7597 202.986 66.7408 202.356 65.5911 202.569C65.1828 202.644 64.7674 202.665 64.3541 202.634C63.7952 202.593 63.264 202.36 62.8409 201.969C62.8409 201.969 59.6374 200.564 58.3932 194.997C58.3932 194.997 57.4702 193.785 57.508 193.471L59.4296 194.345C59.4296 194.345 58.7733 195.821 59.2903 197.045C59.2903 197.045 59.3517 194.4 59.7223 194.46C59.7955 194.473 60.7209 194.962 60.7209 194.962C60.7209 194.962 59.5901 197.53 60.4424 199.397C60.4424 199.397 60.1189 196.232 61.0727 195.148L62.4277 195.989C62.4277 195.989 61.1057 198.641 62.0028 200.805C62.0028 200.805 61.7667 197.484 62.711 196.192L63.9386 197.196C63.9386 197.196 62.6969 199.811 63.4547 201.608C63.4547 201.608 63.5515 197.74 64.203 197.449C64.203 197.449 65.2772 198.453 65.4401 198.87C65.4401 198.87 64.5902 200.767 65.1166 201.768C65.1166 201.768 65.4401 199.193 65.7068 199.181C65.7068 199.181 66.7739 200.887 66.8872 202.057C66.8872 202.057 66.84 200.318 65.9641 199.018C65.9641 199.018 66.9981 199.206 67.6025 199.919C67.6025 199.919 67.4349 198.712 65.7021 198.606C65.7021 198.606 64.8192 197.314 64.5807 197.233C64.5807 197.233 66.3064 197.08 67.3523 197.575C67.3523 197.575 66.4316 196.435 64.2644 196.952L63.0533 195.903C63.0533 195.903 65.3267 195.572 66.2876 195.938C66.2876 195.938 65.1804 194.935 62.7276 195.665L61.4103 194.827C61.4103 194.827 63.3461 194.382 64.5005 194.543C64.5005 194.543 63.2823 193.845 61.0231 194.601L60.0788 194.152C60.0788 194.152 61.4953 193.855 61.9131 193.808C62.331 193.76 62.3498 193.64 62.3498 193.64C61.4512 193.48 60.5285 193.588 59.6846 193.953C59.6846 193.953 57.6874 193.193 57.7228 193.047Z" fill="#2C7F65"/>
<path opacity="0.1" d="M65.5702 205.174C70.024 205.174 73.6345 204.526 73.6345 203.726C73.6345 202.926 70.024 202.278 65.5702 202.278C61.1164 202.278 57.5059 202.926 57.5059 203.726C57.5059 204.526 61.1164 205.174 65.5702 205.174Z" fill="#2C7F65"/>
<path d="M42.4606 187.338C42.4606 187.338 48.8842 186.926 48.1264 191.712C48.1664 191.955 48.1329 192.205 48.0306 192.426C47.9283 192.647 47.7626 192.827 47.5574 192.942C47.5574 192.942 47.5456 192.588 46.8988 192.709C46.6689 192.75 46.435 192.762 46.2024 192.744C45.8864 192.723 45.5859 192.591 45.3478 192.37C45.3478 192.37 43.5442 191.574 42.8359 188.437C42.8359 188.437 42.3166 187.752 42.3355 187.576L43.4214 188.078C43.4214 188.078 43.0508 188.911 43.3411 189.602C43.3411 189.602 43.3766 188.108 43.5772 188.144C43.6197 188.144 44.1414 188.432 44.1414 188.432C44.1414 188.432 43.504 189.88 43.9856 190.942C43.9856 190.942 43.8015 189.157 44.3397 188.545L45.1023 189.019C45.1023 189.019 44.3586 190.525 44.8662 191.735C44.8662 191.735 44.7363 189.863 45.2651 189.135L45.9568 189.707C45.9568 189.707 45.2486 191.18 45.6854 192.194C45.6854 192.194 45.7397 190.013 46.1079 189.85C46.1079 189.85 46.7123 190.417 46.8044 190.651C46.8044 190.651 46.3322 191.72 46.6226 192.284C46.6226 192.284 46.8044 190.834 46.9554 190.826C46.9554 190.826 47.5574 191.787 47.6188 192.448C47.5887 191.838 47.4097 191.247 47.0994 190.733C47.4468 190.801 47.7677 190.976 48.0225 191.235C48.0225 191.235 47.9304 190.555 46.9507 190.495C46.9507 190.495 46.4526 189.765 46.3204 189.722C46.3204 189.722 47.293 189.634 47.8832 189.913C47.8832 189.913 47.3639 189.27 46.141 189.561L45.4587 188.969C45.4587 188.969 46.7406 188.783 47.2836 188.989C47.2836 188.989 46.658 188.422 45.2746 188.836L44.5333 188.362C45.1044 188.229 45.6892 188.176 46.2732 188.204C46.2732 188.204 45.5886 187.81 44.3138 188.236L43.7826 187.985C43.7826 187.985 44.5829 187.817 44.8166 187.792C45.0503 187.767 45.0645 187.697 45.0645 187.697C44.5574 187.607 44.0369 187.669 43.5607 187.875C43.5607 187.875 42.4417 187.421 42.4606 187.338Z" fill="#2C7F65"/>
<path opacity="0.1" d="M46.8847 194.174C49.3958 194.174 51.4315 193.808 51.4315 193.356C51.4315 192.904 49.3958 192.538 46.8847 192.538C44.3736 192.538 42.3379 192.904 42.3379 193.356C42.3379 193.808 44.3736 194.174 46.8847 194.174Z" fill="#2C7F65"/>
<path d="M200.492 191.938C200.492 191.938 208.247 191.436 207.338 197.208C207.385 197.502 207.343 197.803 207.219 198.07C207.096 198.336 206.896 198.555 206.649 198.694C206.649 198.694 206.635 198.265 205.853 198.41C205.575 198.461 205.292 198.475 205.011 198.453C204.63 198.427 204.268 198.268 203.981 198.001C203.981 198.001 201.8 197.045 200.952 193.256C200.952 193.256 200.324 192.43 200.35 192.219L201.658 192.811C201.658 192.811 201.212 193.815 201.564 194.651C201.564 194.651 201.606 192.849 201.857 192.894C201.908 192.894 202.536 193.241 202.536 193.241C202.536 193.241 201.767 194.997 202.348 196.252C202.348 196.252 202.128 194.099 202.777 193.361L203.698 193.931C203.698 193.931 202.798 195.738 203.41 197.211C203.41 197.211 203.252 194.952 203.882 194.071L204.718 194.764C204.718 194.764 203.873 196.543 204.387 197.776C204.387 197.776 204.456 195.145 204.9 194.945C204.9 194.945 205.629 195.63 205.74 195.911C205.74 195.911 205.162 197.203 205.52 197.886C205.52 197.886 205.74 196.129 205.922 196.129C205.922 196.129 206.649 197.291 206.724 198.087C206.689 197.351 206.474 196.638 206.099 196.019C206.518 196.103 206.906 196.316 207.213 196.631C207.213 196.631 207.1 195.81 205.917 195.738C205.917 195.738 205.317 194.857 205.157 194.804C205.157 194.804 206.337 194.699 207.046 195.035C207.046 195.035 206.418 194.262 204.942 194.613L204.118 193.898C204.118 193.898 205.664 193.672 206.321 193.921C206.321 193.921 205.565 193.236 203.896 193.735L202.999 193.165C202.999 193.165 204.316 192.864 205.103 192.972C205.103 192.972 204.274 192.498 202.742 193.012L202.1 192.706C202.1 192.706 203.065 192.503 203.349 192.473C203.632 192.443 203.646 192.357 203.646 192.357C203.035 192.249 202.407 192.323 201.833 192.571C201.833 192.571 200.468 192.034 200.492 191.938Z" fill="#2C7F65"/>
<path opacity="0.1" d="M205.832 200.195C208.863 200.195 211.32 199.753 211.32 199.208C211.32 198.664 208.863 198.222 205.832 198.222C202.8 198.222 200.343 198.664 200.343 199.208C200.343 199.753 202.8 200.195 205.832 200.195Z" fill="#2C7F65"/>
<path d="M192.765 131.012C192.616 130.128 192.53 129.234 192.507 128.337C192.507 127.26 191.131 126.307 191.131 126.307C191.131 126.307 190.281 124.216 189.715 123.907C189.148 123.599 187.399 120.863 187.399 120.863C187.379 120.324 187.194 119.806 186.872 119.388C186.348 118.655 185.869 117.887 185.439 117.089C185.203 116.783 185.321 116.567 184.967 114.782C184.948 114.689 184.927 114.599 184.901 114.514C184.901 114.474 184.877 114.439 184.863 114.398C185.239 113.998 185.501 113.492 185.619 112.941C185.737 112.389 185.707 111.813 185.531 111.279C185.468 111.066 185.352 110.876 185.196 110.727C184.797 110.38 184.16 110.524 183.749 110.195L184.186 108.142C184.29 107.64 184.344 107.005 183.931 106.734C183.776 106.656 183.612 106.598 183.444 106.561C182.736 106.31 182.325 105.514 182.141 104.749C181.964 104.012 181.916 103.246 182 102.49C182.08 101.762 182.281 101.055 182.354 100.324C182.487 98.9737 182.181 97.6151 181.487 96.4747C181.218 95.9825 180.82 95.5835 180.342 95.3253C179.906 95.117 179.398 95.0743 178.99 94.8233C178.111 94.2286 178.156 92.8156 177.455 92.005C176.754 91.1944 175.512 91.1969 174.49 91.4755C173.468 91.7541 172.45 92.2284 171.402 92.1104C170.727 92.0301 170.094 91.7039 169.417 91.6286C169.223 91.609 169.028 91.6183 168.836 91.6562V91.6336C168.336 91.729 167.875 92.0251 167.757 92.5296C167.731 92.6496 167.72 92.7728 167.724 92.896C167.724 93.1896 167.79 93.4958 167.795 93.7768C167.804 93.8885 167.791 94.0009 167.758 94.1074C167.726 94.2138 167.673 94.3122 167.604 94.3967C167.469 94.5498 167.271 94.6301 167.132 94.7882C167.075 94.8487 167.03 94.9208 167.001 95.0002C166.971 95.0796 166.957 95.1646 166.959 95.25C166.959 95.6967 167.483 96.0907 167.835 96.2714H167.849C167.755 96.3718 167.66 96.4772 167.573 96.5851C166.565 97.7957 166.009 99.3574 166.01 100.974C166.019 102.281 166.386 103.555 167.067 104.642C167.749 105.73 168.714 106.581 169.844 107.093L169.795 107.256C169.695 107.579 169.579 107.895 169.448 108.205C169.203 108.117 168.944 108.088 168.688 108.118C168.432 108.148 168.185 108.238 167.965 108.38C167.29 108.882 165.97 108.842 165.618 108.749C165.267 108.656 161.605 108.164 161.31 108.287C161.015 108.41 160.432 107.858 160.052 108.596C159.672 109.334 159.495 109.733 159.107 109.919C158.72 110.104 158.052 110.687 158.142 110.81C158.232 110.933 157.174 111.67 157.174 111.67C157.174 111.67 156.265 112.674 155.739 112.807C155.212 112.94 154.098 113.701 154.098 113.701L152.807 114.775C152.807 114.775 151.841 114.93 152.134 114.223C152.427 113.515 151.605 112.624 151.605 112.624C151.605 112.624 149.964 109.088 149.964 108.358C149.964 107.627 148.616 104.513 148.616 104.513L148.451 104.495L148.375 104.267C148.128 103.527 147.807 102.618 147.561 102.086C147.089 101.07 146.799 100.964 146.799 100.964C146.799 100.964 141.114 96.427 137.422 97.8098C133.729 99.1926 144.162 103.313 145.099 103.745C145.427 103.896 145.663 104.382 145.828 104.952C144.997 105.379 144.296 106.048 143.81 106.882C143.81 106.882 146.067 112.2 146.126 113.523C146.185 114.845 147.679 118.542 147.679 118.542C147.679 118.542 148.236 121.28 151.253 121.124C151.253 121.124 155.415 121.937 156.324 121.124C157.233 120.311 158.052 119.674 158.494 119.581C158.818 119.467 159.104 119.253 159.313 118.966C159.313 118.966 157.937 128.189 157.261 128.989C156.586 129.79 150.621 140.145 152.762 141.997C154.458 143.393 156.25 144.651 158.123 145.761C158.305 145.856 158.85 144.89 159.629 144.205C159.629 144.378 159.629 144.554 159.629 144.74C159.643 148.424 160.101 154.025 160.734 155.28C161.678 157.125 161.291 160.691 161.291 160.691C161.788 160.939 162.327 161.077 162.875 161.095C162.904 161.215 162.937 161.346 162.967 161.471C163.484 163.547 164.322 166.757 164.75 167.61C165.394 168.902 165.862 172.993 165.862 172.993C165.862 172.993 166.244 177.008 166.098 177.573C166.041 177.786 166.289 179.458 166.678 181.588C166.442 184.472 165.994 190.031 165.918 192.041C165.918 192.079 165.918 192.116 165.918 192.151V192.187C165.919 192.209 165.919 192.232 165.918 192.254C165.918 192.299 165.918 192.34 165.918 192.377C165.911 192.504 165.916 192.631 165.932 192.756C165.962 192.948 165.948 193.144 165.892 193.328C165.725 193.884 165.513 194.423 165.257 194.94C165.15 195.193 165.055 195.453 164.974 195.718C164.738 195.828 164.45 196.097 164.289 196.752C163.997 197.951 163.557 201.269 163.557 201.269C163.557 201.269 163.38 203.299 163.031 203.761C162.682 204.223 162.323 207.111 164.818 207.48C167.313 207.849 168.392 206.075 168.392 206.075L168.305 198.024V198.009C168.355 197.941 168.399 197.868 168.435 197.791V197.77C168.451 197.733 168.47 197.693 168.487 197.647L168.508 197.587L168.546 197.489C168.544 197.478 168.544 197.466 168.546 197.454C168.788 196.683 168.861 195.863 168.758 195.058V195.017V194.955C168.758 194.935 168.758 194.912 168.758 194.892V194.766C168.758 194.751 168.758 194.734 168.758 194.719C168.758 194.665 168.763 194.61 168.772 194.553C168.772 194.553 168.772 194.533 168.772 194.523L168.787 194.425V194.382C168.787 194.35 168.787 194.317 168.805 194.282C168.804 194.274 168.804 194.265 168.805 194.257C168.829 194.142 168.857 194.006 168.888 193.896V193.868L168.923 193.748C168.959 193.62 168.999 193.497 169.041 193.361V193.336C169.041 193.296 169.067 193.256 169.082 193.218V193.203C169.124 193.08 169.169 192.952 169.211 192.847L169.223 192.814L169.261 192.714L169.273 192.683L169.363 192.46L170.054 194.731C170.054 194.731 170.437 196.423 170.231 196.822C170.026 197.221 170.467 198.882 170.758 198.912L170.486 201.003C170.339 202.156 170.252 203.316 170.224 204.479C170.205 204.612 170.186 204.73 170.172 204.81C169.983 205.882 170.437 207.543 170.437 207.543C172.75 210.452 175.508 207.769 175.508 207.769C175.508 207.769 175.829 206.23 175.508 205.924C175.186 205.618 175.331 204.509 175.331 204.509C175.331 204.509 175.477 201.771 175.505 199.773C175.534 197.775 173.968 196.009 173.968 196.009L173.881 196.092C173.595 195.309 173.27 194.395 173.338 193.986C173.456 193.278 173.015 185.807 173.015 185.807C173.178 183.804 173.212 181.792 173.118 179.784C173.156 179.445 173.192 179.111 173.227 178.78C173.404 177.174 173.548 175.801 173.605 175.081V174.996C173.619 174.802 173.626 174.664 173.624 174.599C173.624 174.348 173.624 174.062 173.647 173.748C173.702 172.885 173.829 171.924 173.829 171.924L174.443 167.956C174.443 167.956 174.915 166.019 175.588 164.945L175.668 164.809C175.694 164.761 175.72 164.709 175.748 164.654L175.76 164.631C175.786 164.578 175.814 164.523 175.84 164.465L175.852 164.443C175.947 164.244 176.048 164.016 176.154 163.765C176.154 163.745 176.171 163.727 176.178 163.707L176.258 163.517C176.258 163.492 176.277 163.466 176.289 163.441C176.301 163.416 176.339 163.313 176.365 163.251C176.376 163.225 176.386 163.199 176.395 163.173C176.426 163.098 176.459 163.02 176.49 162.939L176.534 162.824C176.556 162.766 176.579 162.709 176.603 162.651L176.66 162.498C176.676 162.46 176.69 162.422 176.704 162.385L176.768 162.212C176.768 162.187 176.789 162.159 176.799 162.134C176.967 161.69 177.127 161.25 177.271 160.851C177.316 160.726 177.361 160.6 177.401 160.49C178.902 160.588 179.922 160.676 179.922 160.676C179.922 160.676 180.394 157.079 180.243 154.713C180.144 153.097 180.427 151.064 180.614 149.945C180.635 149.822 180.654 149.711 180.673 149.611L180.713 149.646C181.447 150.261 181.974 148.231 181.974 148.231C181.974 148.231 181.775 146.336 181.501 144.04L181.473 143.811C181.896 143.907 182.324 143.977 182.755 144.019C182.755 144.019 182.991 143.997 183.315 143.954C184.209 144.505 185.154 144.959 186.133 145.309L187.694 142.248C187.987 141.613 188.331 141.006 188.721 140.433C189.193 139.818 190.86 137.851 190.831 137.482C190.803 137.113 191.388 134.99 191.974 134.036C192.559 133.083 192.793 131.165 192.765 131.012ZM186.258 133.349C185.642 133.625 185.057 135.163 185.028 135.625C185 136.087 184.353 138.114 183.68 138.36C183.06 138.586 181.874 139.746 181.686 139.931C181.492 139.949 181.273 139.976 181.044 140.017C180.786 138.077 180.531 136.47 180.368 136.147C179.896 135.223 180.885 132.272 180.885 132.272C180.885 132.272 180.982 129.29 181.594 128.583C182.205 127.875 182.066 126.091 182.066 126.091C182.066 126.091 182.212 125.353 182.271 125.017C182.33 124.68 183.142 125.017 183.149 125.017C183.149 125.017 184.731 125.938 184.967 127.32C185.203 128.703 186.931 131.102 186.931 131.102C186.931 131.102 186.667 131.933 186.931 132.357C187.196 132.781 186.875 133.072 186.258 133.349Z" fill="url(#paint0_linear)"/>
<path d="M143.876 107.07C144.357 106.227 145.062 105.552 145.902 105.132C146.741 104.711 147.679 104.563 148.597 104.706V108.298H146.546L144.941 107.866L143.876 107.07Z" fill="#4C4981"/>
<path opacity="0.1" d="M143.876 107.07C144.357 106.227 145.062 105.552 145.902 105.132C146.741 104.711 147.679 104.563 148.597 104.706V108.298H146.546L144.941 107.866L143.876 107.07Z" fill="black"/>
<path d="M148.751 105.657L146.237 107.53C146.237 107.53 146.216 107.156 146.152 106.644C146.027 105.675 145.746 104.222 145.139 103.941C144.216 103.509 133.94 99.3984 137.585 98.0156C141.23 96.6328 146.822 101.165 146.822 101.165C146.822 101.165 147.11 101.271 147.571 102.282C147.807 102.814 148.13 103.72 148.373 104.46C148.598 105.128 148.751 105.657 148.751 105.657Z" fill="#AE6E79"/>
<path d="M168.836 108.541L169.122 108.398L169.925 109.372L169.268 110.86L168.149 110.383L168.409 109.193L168.836 108.541Z" fill="#4C4981"/>
<path d="M165.033 195.702C165.033 195.702 164.311 195.612 164.023 196.809C163.735 198.006 163.3 201.327 163.3 201.327C163.3 201.327 163.128 203.352 162.781 203.814C162.434 204.275 162.089 207.159 164.542 207.525C166.995 207.892 168.064 206.122 168.064 206.122L167.977 198.074L165.033 195.702Z" fill="#444053"/>
<path d="M173.593 196.064C173.593 196.064 175.137 197.821 175.108 199.813C175.08 201.806 174.934 204.539 174.934 204.539C174.934 204.539 174.792 205.646 175.108 205.952C175.425 206.258 175.108 207.794 175.108 207.794C175.108 207.794 172.394 210.472 170.113 207.568C170.113 207.568 169.669 205.909 169.853 204.84C170.037 203.771 170.552 198.965 170.552 198.965L173.593 196.064Z" fill="#444053"/>
<path d="M177.418 159.366C177.418 159.366 175.86 163.998 175.194 165.073C174.528 166.147 174.07 168.084 174.07 168.084L173.463 172.042C173.345 172.927 173.277 173.818 173.26 174.712C173.289 175.603 171.759 188.583 171.759 188.583L169.334 191.868C169.334 191.868 168.267 194.169 168.44 195.13C168.612 196.091 168.324 197.617 167.968 198.077C167.968 198.077 167.911 201.088 167.824 201.758C167.736 202.428 168.142 204.338 167.824 204.674C167.505 205.011 163.263 204.86 163.147 204.305C163.031 203.751 163.666 201.083 163.666 201.083L164.042 198.506C164.042 198.506 164.792 197.095 164.62 196.634C164.448 196.172 164.936 195.1 164.965 195.007C164.993 194.914 165.774 193.411 165.63 192.829C165.486 192.247 166.539 179.864 166.539 179.864L169.511 157.677L177.418 159.366Z" fill="#AE6E79"/>
<path opacity="0.1" d="M177.418 159.366C177.418 159.366 177.182 160.064 176.858 160.98C176.343 162.425 175.602 164.415 175.194 165.073C174.53 166.147 174.068 168.084 174.068 168.084L173.461 172.044C173.344 172.929 173.277 173.821 173.26 174.715C173.26 175.066 173.038 177.307 172.755 179.89C172.318 183.837 171.759 188.585 171.759 188.585L169.334 191.87C169.334 191.87 169.212 192.121 169.058 192.518C168.754 193.271 168.324 194.493 168.44 195.123C168.612 196.074 168.324 197.607 167.968 198.069C167.968 198.069 167.909 201.081 167.824 201.751C167.739 202.421 168.142 204.328 167.824 204.667C167.505 205.006 163.263 204.853 163.147 204.301C163.031 203.748 163.666 201.078 163.666 201.078L164.042 198.498C164.042 198.498 164.792 197.088 164.618 196.626C164.443 196.164 164.936 195.093 164.965 195C164.993 194.907 165.774 193.404 165.63 192.822C165.519 192.377 166.103 185.107 166.374 181.659C166.466 180.575 166.525 179.869 166.525 179.869L169.082 160.781L169.29 159.243L169.497 157.682L177.418 159.366Z" fill="black"/>
<path d="M174.821 205.52C174.847 205.859 170.748 206.351 170.163 205.982C169.577 205.613 170.163 201.04 170.163 201.04L170.43 198.955C170.144 198.922 169.71 197.266 169.91 196.867C170.111 196.468 169.738 194.781 169.738 194.781L169.058 192.523L168.643 191.14C167.967 189.556 166.99 185.039 166.383 181.666C166.001 179.548 165.758 177.879 165.812 177.666C165.956 177.114 165.576 173.093 165.576 173.093C165.576 173.093 165.104 169.01 164.481 167.723C164.058 166.87 163.234 163.665 162.724 161.597C162.465 160.535 162.285 159.772 162.285 159.772C162.285 159.772 166.648 159.383 169.294 159.248C170.51 159.185 171.365 159.178 171.265 159.283C171.166 159.388 171.14 159.951 171.145 160.764C171.157 162.869 171.433 166.573 171.726 167.57C172.129 168.95 172.533 173.091 172.361 173.492C172.188 173.894 172.245 176.562 172.245 176.562C172.543 177.645 172.714 178.764 172.755 179.892C172.847 181.891 172.814 183.893 172.656 185.887C172.656 185.887 173.088 193.346 172.972 194.051C172.857 194.756 173.895 196.967 173.895 197.396C173.895 197.826 174.183 200.742 174.183 200.742C174.183 200.742 174.802 205.184 174.821 205.52Z" fill="#AE6E79"/>
<path d="M177.099 115.877L176.603 116.446L176.28 116.818L174.391 118.976L169.511 119.561L166.915 118.823L166.272 118.64C166.272 118.64 166.272 117.254 166.388 115.593C166.553 113.462 166.948 110.875 167.89 110.17C168.361 109.777 168.738 109.27 168.987 108.692C169.176 108.292 169.334 107.878 169.459 107.452C169.478 107.397 169.493 107.344 169.509 107.289C169.721 106.545 169.875 105.784 169.967 105.012C169.967 105.012 170.59 104.646 171.457 104.219C173.716 103.098 177.618 101.549 176.261 105.012C176.061 105.52 175.891 106.039 175.751 106.568C175.73 106.646 175.711 106.724 175.694 106.799C175.241 108.727 175.541 109.896 175.878 110.541C175.935 110.653 176.001 110.759 176.074 110.86C176.167 110.995 176.277 111.114 176.402 111.214L176.964 115.006L177.012 115.319L177.099 115.877Z" fill="#AE6E79"/>
<path opacity="0.1" d="M176.263 105.198C176.006 105.856 176.388 104.661 176.263 105.198C175.234 105.976 172.809 108.192 171.447 108.192C170.527 108.192 170.25 108.014 169.462 107.635C169.701 106.841 169.87 106.025 169.969 105.198C169.969 105.198 178.14 100.41 176.263 105.198Z" fill="black"/>
<path d="M178.343 101.165C178.342 102.818 177.766 104.412 176.726 105.64C175.685 106.868 174.254 107.644 172.708 107.818C172.491 107.841 172.272 107.856 172.05 107.856C170.805 107.856 169.588 107.463 168.553 106.728C167.518 105.993 166.711 104.948 166.235 103.726C165.759 102.503 165.634 101.158 165.877 99.8598C166.12 98.562 166.719 97.3698 167.599 96.4341C168.479 95.4984 169.601 94.8612 170.822 94.603C172.043 94.3449 173.308 94.4774 174.458 94.9838C175.608 95.4902 176.591 96.3477 177.283 97.448C177.974 98.5483 178.343 99.8418 178.343 101.165Z" fill="#AE6E79"/>
<path opacity="0.1" d="M179.238 130.824L178.341 133.311C178.341 133.311 177.612 133.344 176.474 133.381C172.633 133.512 164.17 133.677 163.792 132.628C163.707 132.362 163.663 132.084 163.66 131.803C163.61 130.204 164.311 127.75 164.311 127.75C164.311 127.75 164.715 122.838 164.715 122.625C164.715 122.412 164.368 118.971 164.368 118.971L165.062 116.21L166.995 114.767C166.995 114.767 167.862 116.18 168.381 116.301C168.901 116.421 169.595 117.101 169.595 117.101C169.595 117.101 171.297 118.206 171.847 117.591C172.397 116.976 176.667 114.276 176.667 114.276L178.92 116.916L179.238 130.824Z" fill="black"/>
<path d="M179.238 131.205L178.341 133.69C178.341 133.69 177.612 133.725 176.474 133.763H176.363C175.872 133.78 175.31 133.798 174.71 133.81C171.658 133.886 167.453 133.906 165.255 133.559C164.429 133.434 163.888 133.253 163.799 133.007C163.749 132.859 163.714 132.706 163.695 132.55C163.681 132.435 163.671 132.3 163.667 132.182C163.617 130.583 164.318 128.129 164.318 128.129C164.318 128.129 164.722 123.217 164.722 123.004C164.722 122.791 164.375 119.35 164.375 119.35L165.069 116.589L166.398 115.6L167.002 115.149C167.206 115.472 167.427 115.782 167.666 116.077C167.852 116.343 168.101 116.552 168.388 116.682C168.91 116.805 169.601 117.483 169.601 117.483C169.601 117.483 171.304 118.587 171.854 117.972C172.272 117.503 174.868 115.814 176.068 115.043C176.436 114.805 176.674 114.657 176.674 114.657L176.976 115.013L178.926 117.297L179.238 131.205Z" fill="white"/>
<path opacity="0.1" d="M148.751 105.657L146.237 107.53C146.237 107.53 146.216 107.156 146.152 106.644C147.394 106.087 148.15 104.854 148.367 104.46C148.598 105.128 148.751 105.657 148.751 105.657Z" fill="black"/>
<path d="M157.585 112.012L157.038 111.856C157.038 111.856 156.141 112.86 155.621 112.993C155.102 113.126 154.006 113.881 154.006 113.881L152.734 114.956C152.734 114.956 151.79 115.111 152.071 114.403C152.352 113.696 151.551 112.807 151.551 112.807C151.551 112.807 149.934 109.279 149.934 108.541C149.934 107.803 148.598 104.706 148.598 104.706C148.598 104.706 146.922 108.175 143.862 107.07C143.862 107.07 146.086 112.378 146.143 113.698C146.199 115.018 147.673 118.7 147.673 118.7C147.673 118.7 148.223 121.433 151.195 121.28C151.195 121.28 155.295 122.09 156.19 121.28C157.085 120.469 157.892 119.832 158.315 119.739C158.737 119.646 159.122 119.127 159.122 119.127V115.478L157.585 112.012Z" fill="#4C4981"/>
<path opacity="0.1" d="M152.445 115.478C152.445 115.478 153.168 118.334 152.705 118.64L152.445 115.478Z" fill="black"/>
<path opacity="0.1" d="M176.473 133.75C172.632 133.881 164.169 134.044 163.791 132.997C163.707 132.731 163.662 132.452 163.659 132.172L176.207 132.874L176.473 133.75Z" fill="black"/>
<path opacity="0.1" d="M177.418 159.366C177.418 159.366 177.182 160.063 176.858 160.979C175.265 160.877 173.154 160.769 171.15 160.754C170.442 160.754 169.748 160.754 169.091 160.779C167.698 160.824 166.495 160.944 165.727 161.175C164.757 161.493 163.743 161.632 162.729 161.587C162.469 160.525 162.29 159.762 162.29 159.762C162.29 159.762 166.653 159.373 169.299 159.238L169.507 157.677L177.418 159.366Z" fill="black"/>
<path d="M180.796 148.133L180.305 149.237C180.305 149.237 180.236 149.566 180.149 150.088C179.965 151.212 179.677 153.24 179.785 154.856C179.929 157.22 179.467 160.809 179.467 160.809C179.467 160.809 168.843 159.858 165.727 160.809C162.611 161.76 161.076 160.809 161.076 160.809C161.076 160.809 161.454 157.25 160.529 155.408C159.898 154.153 159.455 148.552 159.44 144.868C159.44 143.169 159.521 141.881 159.721 141.62C160.356 140.792 163.069 132.505 163.069 132.505L163.687 132.541L165.34 132.633L174.736 133.16L176.211 133.243L176.367 133.745L180.796 148.133Z" fill="#444053"/>
<path d="M185.472 144.449L185.559 145.432C185.559 145.432 180.906 143.821 181.142 141.841C181.379 139.861 181.142 140.084 181.142 140.084L184.882 140.421L185.472 144.449Z" fill="#4C4981"/>
<path opacity="0.1" d="M185.472 144.449L185.559 145.432C185.559 145.432 180.906 143.821 181.142 141.841C181.379 139.861 181.142 140.084 181.142 140.084L184.882 140.421L185.472 144.449Z" fill="black"/>
<path opacity="0.1" d="M155.551 116.271C156.026 116.7 156.586 117.009 157.189 117.177C157.014 117.136 156.852 117.05 156.717 116.926C156.384 116.675 156.068 116.401 155.747 116.135C155.487 115.919 155.163 115.56 154.845 115.473C155.053 115.764 155.29 116.031 155.551 116.271Z" fill="black"/>
<path opacity="0.1" d="M155.621 117.563C155.771 117.743 155.892 117.947 155.98 118.168C156.129 118.793 156.12 119.448 155.954 120.068L155.208 118.155C155.078 117.829 154.948 117.503 154.792 117.192C154.724 117.059 154.294 116.504 154.344 116.389C154.476 116.062 155.482 117.38 155.621 117.563Z" fill="black"/>
<path opacity="0.1" d="M176.436 128.154C176.945 128.088 177.42 127.852 177.793 127.479C177.026 127.581 176.299 127.903 175.544 128.071C174.842 128.244 174.107 128.172 173.447 127.865C174.316 128.317 175.511 128.332 176.436 128.154Z" fill="black"/>
<path opacity="0.1" d="M174.266 122.535C174.128 122.556 173.988 122.519 173.876 122.432C173.3 122.08 172.732 121.714 172.172 121.332C171.627 120.959 170.968 120.58 170.503 120.108C171.648 121.207 172.715 122.136 174.266 122.535Z" fill="black"/>
<path opacity="0.1" d="M175.867 129.045C176.169 129.059 176.472 129.033 176.769 128.967C177.068 128.9 177.333 128.716 177.51 128.45C177.403 128.424 177.29 128.442 177.196 128.502C176.281 128.912 175.277 129.04 174.297 128.871C174.767 129.085 175.369 129.042 175.867 129.045Z" fill="black"/>
<path opacity="0.1" d="M170.399 143.294C169.798 143.487 169.18 143.616 168.555 143.678C168.069 143.702 167.581 143.692 167.096 143.648L164.735 143.49L163.555 143.41C163.416 143.41 162.847 143.41 163.128 143.111C163.269 142.965 164.058 143.058 164.261 143.051C164.653 143.037 165.046 143.03 165.441 143.028C166.223 143.028 167.006 143.028 167.788 143.078C168.664 143.124 169.525 143.194 170.399 143.294Z" fill="black"/>
<path opacity="0.1" d="M167.663 144.537C167.262 144.519 166.745 144.772 166.332 144.828C165.87 144.886 165.404 144.905 164.939 144.885C164.019 144.862 163.11 144.665 162.255 144.303C164.056 144.401 165.862 144.459 167.663 144.537Z" fill="black"/>
<path opacity="0.1" d="M162.606 145.851C162.781 145.889 162.953 145.939 163.121 146.002C164.117 146.303 165.177 146.037 166.19 145.771C165.937 146.175 165.482 146.348 165.026 146.459C164.285 146.658 163.512 146.688 162.76 146.547C162.524 146.496 161.931 146.406 161.815 146.145C161.622 145.761 162.384 145.814 162.606 145.851Z" fill="black"/>
<path opacity="0.1" d="M168.192 147.832C168.491 147.897 168.785 147.98 169.075 148.082C170.196 148.379 171.36 147.972 172.486 147.699C173.84 147.372 175.228 147.235 176.615 147.292C176.367 147.292 175.973 147.523 175.73 147.601C175.411 147.704 175.088 147.799 174.764 147.884C174.129 148.05 173.485 148.185 172.836 148.283C171.525 148.485 170.199 148.546 168.877 148.466C168.272 148.431 167.224 148.497 166.707 148.173C167.154 147.891 167.675 147.771 168.192 147.832Z" fill="black"/>
<path opacity="0.1" d="M168.614 109.981C168.614 109.981 168.671 112.807 168.239 114.097C168.102 114.499 167.89 115.239 167.658 116.07C167.406 116.991 167.129 118.022 166.917 118.83C166.704 119.638 166.563 120.181 166.563 120.181C166.563 120.181 165.588 128.623 165.335 132.646C165.335 132.716 165.335 132.789 165.321 132.857C165.307 133.082 165.283 133.318 165.248 133.562C164.686 137.557 161.445 143.718 160.356 144.21C160.017 144.376 159.707 144.602 159.44 144.88C159.44 143.181 159.521 141.894 159.721 141.633C160.356 140.805 163.069 132.518 163.069 132.518L163.687 132.553C163.673 132.438 163.664 132.302 163.659 132.184C163.61 130.585 164.311 128.131 164.311 128.131C164.311 128.131 164.714 123.22 164.714 123.006C164.714 122.793 164.367 119.352 164.367 119.352L165.061 116.592L166.39 115.603C166.556 113.472 166.95 110.885 167.892 110.18C168.364 109.787 168.74 109.28 168.99 108.702C169.176 108.729 168.836 108.553 168.836 108.553L168.614 109.981Z" fill="black"/>
<path d="M169.122 108.398C168.882 108.31 168.626 108.281 168.373 108.311C168.12 108.342 167.877 108.431 167.661 108.574C166.995 109.075 165.697 109.033 165.35 108.942C165.003 108.852 161.396 108.358 161.101 108.481C160.805 108.604 160.234 108.052 159.859 108.789C159.483 109.527 159.311 109.924 158.936 110.107C158.56 110.29 157.895 110.875 157.991 110.998C158.088 111.121 157.047 111.856 157.047 111.856L159.153 119.134C159.153 119.134 157.795 128.339 157.132 129.137C156.469 129.935 150.579 140.278 152.687 142.12C154.356 143.515 156.122 144.773 157.97 145.884C158.206 146.007 159.037 144.351 160.192 143.829C161.346 143.307 164.927 136.4 165.149 132.473C165.371 128.545 166.391 119.799 166.391 119.799C166.391 119.799 167.633 115.011 168.065 113.721C168.497 112.431 168.44 109.605 168.44 109.605L169.122 108.398Z" fill="#4C4981"/>
<path opacity="0.1" d="M180.796 148.133L180.305 149.237C180.305 149.237 180.237 149.566 180.15 150.088C180.062 150.076 179.98 150.037 179.913 149.975C179.191 149.36 174.956 144.727 174.746 140.614C174.597 137.58 174.668 134.965 174.715 133.8C174.729 133.434 174.743 133.213 174.743 133.165C174.743 133.165 178.034 128.929 177.659 127.428C177.284 125.928 176.417 117.892 176.417 117.892L176.29 116.838L176.07 115.056L175.546 110.744L176.089 110.88C176.181 111.015 176.292 111.134 176.417 111.234L176.979 115.026L178.929 117.31L179.248 131.213L178.351 133.697C178.351 133.697 177.621 133.732 176.483 133.77H176.372L180.796 148.133Z" fill="black"/>
<path d="M182.614 125.182C182.614 125.182 181.806 124.843 181.75 125.182C181.693 125.521 181.547 126.254 181.547 126.254C181.547 126.254 181.691 128.036 181.074 128.741C180.458 129.446 180.366 132.422 180.366 132.422C180.366 132.422 179.394 135.369 179.854 136.29C180.021 136.624 180.281 138.297 180.541 140.305C180.706 141.56 180.869 142.938 181.013 144.198C181.275 146.486 181.471 148.381 181.471 148.381C181.471 148.381 180.949 150.406 180.227 149.792C179.504 149.177 175.269 144.544 175.062 140.431C174.92 137.542 174.977 135.032 175.024 133.795C175.043 133.271 175.062 132.975 175.062 132.975C175.062 132.975 178.352 128.738 177.977 127.235C177.602 125.732 176.735 117.699 176.735 117.699L176.584 116.456L176.421 115.121L176.384 114.828L175.862 110.561C175.954 110.584 179.193 111.362 179.62 111.816C180.047 112.27 182.689 112.92 182.689 112.92C183.088 113.035 183.45 113.262 183.738 113.576C184.026 113.89 184.23 114.281 184.327 114.707C184.353 114.792 184.372 114.883 184.391 114.976C184.738 116.757 184.627 116.971 184.863 117.279C185.099 117.588 182.614 125.182 182.614 125.182Z" fill="#4C4981"/>
<path opacity="0.1" d="M181.032 144.195C179.852 143.944 178.1 143.364 178.14 142.085C178.176 140.887 179.531 140.456 180.558 140.303C180.723 141.553 180.886 142.935 181.032 144.195Z" fill="black"/>
<path d="M184.693 143.558C184.646 143.666 184.457 143.758 184.188 143.841C183.557 144.001 182.915 144.112 182.269 144.175C182.269 144.175 178.255 143.836 178.312 141.901C178.355 140.513 180.168 140.145 181.185 140.062C181.41 140.039 181.636 140.029 181.863 140.032C181.863 140.032 184.866 143.161 184.693 143.558Z" fill="#AE6E79"/>
<path opacity="0.1" d="M184.693 143.558C184.646 143.666 184.457 143.758 184.188 143.841C183.142 142.353 181.683 140.443 180.968 140.275L181.185 140.062C181.41 140.039 181.636 140.029 181.862 140.032C181.862 140.032 184.865 143.161 184.693 143.558Z" fill="black"/>
<path d="M183.683 117.074L184.863 117.259C185.289 118.057 185.762 118.826 186.28 119.561C186.597 119.98 186.779 120.496 186.799 121.034C186.799 121.034 188.532 123.764 189.079 124.071C189.627 124.377 190.465 126.465 190.465 126.465C190.465 126.465 191.823 127.416 191.823 128.49C191.847 129.386 191.933 130.278 192.082 131.16C192.113 131.313 191.882 133.218 191.303 134.172C190.725 135.125 190.146 137.229 190.177 137.605C190.208 137.981 188.56 139.939 188.1 140.551C187.715 141.124 187.377 141.73 187.089 142.363L185.56 145.432C185.56 145.432 182.325 140.368 181.143 140.092C181.143 140.092 182.469 138.742 183.133 138.496C183.796 138.25 184.433 136.237 184.462 135.765C184.49 135.294 185.068 133.77 185.673 133.507C186.277 133.243 186.598 132.955 186.339 132.523C186.079 132.091 186.339 131.268 186.339 131.268C186.339 131.268 184.634 128.874 184.403 127.504C184.171 126.133 182.613 125.202 182.613 125.202L181.719 122.868L183.683 117.074Z" fill="#4C4981"/>
<path opacity="0.1" d="M187.977 128.53C188.63 127.944 189.452 127.613 190.307 127.591C189.759 127.692 189.183 127.82 188.782 128.226C188.624 128.402 188.483 128.594 188.36 128.799C188.223 129.007 187.108 130.513 186.943 130.274C186.667 129.925 187.753 128.733 187.977 128.53Z" fill="black"/>
<path opacity="0.1" d="M185.361 127.077C185.538 127.061 185.708 126.995 185.852 126.886C185.997 126.777 186.112 126.629 186.185 126.457C186.326 126.111 186.413 125.743 186.443 125.368C186.527 124.739 186.646 124.117 186.799 123.503C186.845 123.382 186.864 123.251 186.856 123.121C186.847 122.99 186.811 122.864 186.749 122.75C186.686 122.554 186.6 122.367 186.494 122.193C186.282 122.444 186.221 123.029 186.133 123.365C186.025 123.782 185.926 124.201 185.831 124.62C185.782 124.821 185.39 127.077 185.361 127.077Z" fill="black"/>
<path opacity="0.1" d="M184.34 114.687C184.223 114.849 184.089 114.995 183.941 115.124C183.469 115.523 182.843 115.859 182.784 116.489C182.8 116.694 182.776 116.9 182.713 117.094C182.562 117.37 182.191 117.345 181.896 117.292C181.647 117.268 181.409 117.175 181.205 117.021C180.895 116.74 180.867 116.238 180.631 115.884C180.488 115.702 180.306 115.556 180.102 115.46C179.897 115.364 179.674 115.319 179.451 115.33C179.009 115.314 178.57 115.42 178.129 115.44C177.845 115.455 177.56 115.435 177.281 115.38C177.189 115.365 177.097 115.345 177.007 115.319C176.81 115.268 176.617 115.198 176.431 115.111C176.335 115.07 176.241 115.024 176.15 114.971C175.855 114.809 175.581 114.607 175.336 114.368C174.904 113.947 174.545 113.364 174.58 112.74C174.602 112.356 174.765 112.002 174.816 111.623C174.993 110.539 174.316 109.515 173.582 108.739C173.289 108.431 172.977 108.132 172.685 107.818C172.229 107.371 171.869 106.825 171.629 106.217C171.432 105.57 171.368 104.885 171.441 104.209C171.507 103.524 171.525 102.835 171.495 102.146C171.278 99.7071 169.318 97.8375 167.359 96.8211L167.271 96.7734C167.853 96.0642 168.568 95.4934 169.371 95.0981C170.174 94.7029 171.046 94.4921 171.931 94.4796C172.816 94.4671 173.693 94.6531 174.506 95.0256C175.318 95.398 176.048 95.9484 176.647 96.641C177.245 97.3335 177.7 98.1525 177.981 99.0445C178.262 99.9365 178.362 100.881 178.276 101.818C178.19 102.754 177.919 103.66 177.482 104.477C177.044 105.295 176.448 106.005 175.735 106.561C175.714 106.639 175.695 106.717 175.678 106.792C175.225 108.719 175.525 109.889 175.862 110.534C175.954 110.556 179.193 111.334 179.621 111.788C180.048 112.243 182.69 112.893 182.69 112.893C183.091 113.006 183.456 113.233 183.747 113.549C184.037 113.865 184.242 114.258 184.34 114.687Z" fill="black"/>
<path d="M166.855 95.0041C166.985 94.846 167.181 94.7657 167.313 94.6126C167.722 94.1408 167.313 93.3703 167.462 92.7479C167.623 92.0578 168.421 91.7566 169.086 91.8294C169.752 91.9022 170.375 92.2284 171.041 92.3087C172.075 92.4317 173.076 91.9549 174.084 91.6763C175.092 91.3978 176.31 91.3827 177.004 92.2033C177.698 93.024 177.651 94.4218 178.515 95.0166C178.914 95.2902 179.417 95.3203 179.849 95.5185C180.322 95.7765 180.714 96.1749 180.977 96.6654C181.661 97.8073 181.962 99.1612 181.832 100.508C181.759 101.235 181.56 101.943 181.48 102.671C181.399 103.427 181.447 104.192 181.622 104.93C181.804 105.683 182.198 106.496 182.904 106.737C183.067 106.775 183.225 106.833 183.376 106.91C183.784 107.181 183.73 107.818 183.626 108.315L183.206 110.375C183.61 110.702 184.238 110.561 184.622 110.905C184.776 111.055 184.891 111.245 184.953 111.457C185.143 112.033 185.163 112.657 185.012 113.246C184.861 113.835 184.544 114.361 184.105 114.755C183.633 115.154 183.008 115.49 182.949 116.118C182.967 116.322 182.942 116.529 182.878 116.722C182.729 116.998 182.356 116.973 182.061 116.921C181.813 116.896 181.575 116.803 181.372 116.65C181.06 116.368 181.034 115.867 180.798 115.513C180.654 115.33 180.473 115.186 180.268 115.089C180.064 114.993 179.841 114.948 179.618 114.958C179.174 114.943 178.737 115.048 178.293 115.071C177.27 115.116 176.27 114.732 175.51 114.002C175.075 113.578 174.719 112.998 174.752 112.371C174.773 111.989 174.936 111.633 174.988 111.254C175.163 110.172 174.488 109.146 173.753 108.37C173.019 107.595 172.158 106.88 171.799 105.848C171.35 104.571 171.785 103.145 171.664 101.79C171.447 99.3482 169.49 97.4811 167.528 96.4622C167.091 96.2238 166.348 95.6189 166.855 95.0041Z" fill="#444053"/>
<path opacity="0.1" d="M182.295 116.08C181.983 115.796 181.957 115.297 181.721 114.943C181.577 114.761 181.396 114.615 181.192 114.519C180.987 114.422 180.764 114.377 180.541 114.386C180.097 114.371 179.658 114.476 179.216 114.499C178.189 114.547 177.185 114.162 176.424 113.427C175.989 113.006 175.635 112.423 175.668 111.798C175.689 111.415 175.852 111.058 175.904 110.682C176.081 109.598 175.404 108.571 174.669 107.796C173.935 107.02 173.076 106.305 172.715 105.273C172.269 103.999 172.715 102.573 172.583 101.215C172.363 98.7735 170.406 96.9064 168.447 95.8875C167.989 95.649 167.245 95.0442 167.752 94.4294C167.88 94.2713 168.076 94.191 168.208 94.0379C168.617 93.5686 168.208 92.7956 168.359 92.1757C168.388 92.0523 168.439 91.9357 168.508 91.8319C168.015 91.9298 167.564 92.2259 167.443 92.7278C167.299 93.3502 167.703 94.1207 167.295 94.5925C167.162 94.7456 166.966 94.8259 166.837 94.9815C166.329 95.5963 167.073 96.2037 167.531 96.4396C169.492 97.4585 171.449 99.3282 171.667 101.768C171.787 103.125 171.353 104.551 171.801 105.828C172.16 106.857 173.022 107.585 173.756 108.35C174.49 109.116 175.172 110.15 174.991 111.234C174.891 111.601 174.812 111.974 174.754 112.351C174.721 112.975 175.078 113.558 175.512 113.979C176.273 114.714 177.276 115.099 178.303 115.051C178.746 115.028 179.183 114.925 179.627 114.938C179.851 114.929 180.073 114.975 180.278 115.071C180.483 115.168 180.664 115.313 180.807 115.495C181.043 115.849 181.069 116.351 181.381 116.632C181.585 116.784 181.822 116.877 182.07 116.901C182.366 116.958 182.739 116.978 182.887 116.705C182.94 116.593 182.963 116.468 182.953 116.343C182.716 116.319 182.489 116.228 182.295 116.08Z" fill="black"/>
<path d="M147.929 101.165H131.6V84.0596H147.941L147.929 101.165ZM147.693 75.3738H131.836C131.836 48.7919 155.604 50.3454 155.604 33.5284C155.604 24.2654 148.472 16.8444 139.759 16.8444C131.045 16.8444 123.916 24.8451 123.916 33.7919H108.07C108.063 29.366 108.878 24.9821 110.468 20.8916C112.058 16.8011 114.392 13.0845 117.336 9.9549C120.28 6.8253 123.776 4.34425 127.624 2.65403C131.471 0.963812 135.595 0.097671 139.759 0.105274C157.261 0.105274 171.447 14.9497 171.447 33.5284C171.447 54.5565 147.681 56.9507 147.681 75.3738H147.693Z" fill="#2C7F65"/>
<path opacity="0.1" d="M66.4862 96.0706H62.2746V91.6487H66.4862V96.0706ZM66.4225 89.4201H62.3384C62.3384 82.5689 68.4645 82.9679 68.4645 78.6288C68.4623 78.061 68.355 77.4993 68.1485 76.9757C67.9421 76.4521 67.6406 75.9769 67.2613 75.5772C66.882 75.1775 66.4324 74.8612 65.9381 74.6463C65.4438 74.4314 64.9145 74.3221 64.3804 74.3248C63.3019 74.3513 62.2749 74.8209 61.5152 75.6351C60.7554 76.4493 60.322 77.5448 60.3058 78.6915H56.2217C56.2488 76.413 57.1171 74.237 58.6394 72.6328C60.1618 71.0285 62.2162 70.1245 64.3597 70.1156C66.5032 70.1067 68.5642 70.9937 70.0983 72.5852C71.6323 74.1768 72.5166 76.3455 72.5604 78.6238C72.5486 84.0445 66.4225 84.6619 66.4225 89.4101V89.4201Z" fill="#2C7F65"/>
<path opacity="0.1" d="M98.3752 126.791H94.1636V122.381H98.3752V126.791ZM98.3138 120.143H94.2297C94.2297 113.289 100.356 113.691 100.356 109.352C100.354 108.784 100.246 108.222 100.04 107.699C99.8334 107.175 99.5318 106.7 99.1525 106.301C98.7732 105.901 98.3236 105.585 97.8293 105.371C97.335 105.156 96.8057 105.047 96.2718 105.05C95.1887 105.071 94.1557 105.539 93.3913 106.354C92.6269 107.17 92.191 108.27 92.1759 109.422H88.0918C88.1189 107.143 88.9872 104.967 90.5095 103.363C92.0319 101.759 94.0863 100.855 96.2298 100.846C98.3733 100.837 100.434 101.724 101.968 103.316C103.502 104.907 104.387 107.076 104.43 109.354C104.438 114.775 98.3138 115.395 98.3138 120.143Z" fill="#2C7F65"/>
<path opacity="0.1" d="M117.766 72.4075H114.714V69.2177H117.766V72.4075ZM117.721 67.5865H114.761C114.761 62.6225 119.202 62.9111 119.202 59.769C119.2 59.3577 119.122 58.9508 118.972 58.5716C118.822 58.1924 118.603 57.8482 118.329 57.5588C118.054 57.2693 117.728 57.0403 117.37 56.8847C117.012 56.7291 116.628 56.6501 116.241 56.6521C115.458 56.6689 114.711 57.0086 114.159 57.5995C113.606 58.1904 113.292 58.9863 113.281 59.8192H110.32C110.314 58.1499 110.932 56.5463 112.038 55.3612C113.144 54.1762 114.647 53.5066 116.218 53.5C117.788 53.4933 119.296 54.1501 120.411 55.3258C121.526 56.5014 122.156 58.0997 122.162 59.769C122.157 63.6966 117.721 64.1458 117.721 67.5865Z" fill="#2C7F65"/>
<path opacity="0.1" d="M169.901 76.9097H168.176V75.1028H169.901V76.9097ZM169.875 74.1867H168.192C168.192 71.381 170.702 71.5441 170.702 69.7673C170.702 69.5349 170.658 69.3048 170.574 69.0904C170.49 68.8759 170.366 68.6814 170.211 68.518C170.055 68.3546 169.871 68.2256 169.668 68.1385C169.466 68.0514 169.249 68.0079 169.03 68.0106C168.587 68.0203 168.166 68.2122 167.853 68.546C167.541 68.8798 167.363 69.3293 167.356 69.7999H165.683C165.702 68.8726 166.062 67.9899 166.684 67.3401C167.307 66.6903 168.144 66.3246 169.016 66.321C169.889 66.3174 170.728 66.6762 171.356 67.3208C171.983 67.9655 172.349 68.8451 172.375 69.7723C172.385 71.9783 169.875 72.2418 169.875 74.1867Z" fill="#2C7F65"/>
<path opacity="0.1" d="M196.284 159.092H194.559V157.285H196.284V159.092ZM196.258 156.369H194.585C194.585 153.561 197.097 153.727 197.097 151.95C197.093 151.481 196.915 151.033 196.602 150.703C196.288 150.374 195.864 150.19 195.423 150.193C194.98 150.202 194.558 150.394 194.245 150.728C193.933 151.062 193.755 151.512 193.749 151.982H192.075C192.095 151.055 192.454 150.172 193.077 149.523C193.7 148.873 194.536 148.507 195.409 148.503C196.282 148.5 197.121 148.859 197.748 149.503C198.376 150.148 198.742 151.028 198.768 151.955C198.777 154.171 196.268 154.424 196.268 156.369H196.258Z" fill="#2C7F65"/>
</g>
<defs>
<linearGradient id="paint0_linear" x1="164.707" y1="208.918" x2="164.707" y2="91.2798" gradientUnits="userSpaceOnUse">
<stop stop-color="#808080" stop-opacity="0.25"/>
<stop offset="0.54" stop-color="#808080" stop-opacity="0.12"/>
<stop offset="1" stop-color="#808080" stop-opacity="0.1"/>
</linearGradient>
<clipPath id="clip0">
<rect width="237" height="210" fill="white" transform="translate(0.116211 0.105286)"/>
</clipPath>
</defs>
</svg>
